<svg xmlns="http://www.w3.org/2000/svg" enable-background="new 0 0 2500 2500" viewBox="0 0 2500 2500"><path fill="#dbdee4" d="M890.97,2158.67c-0.67,0-1.33-0.35-1.69-0.98c-0.53-0.93-0.21-2.12,0.72-2.66l324.44-186.39
			c1.36-0.79,2.17-2.22,2.17-3.8c-0.01-1.59-0.82-3.01-2.2-3.8l-294.88-171.18c-0.93-0.54-1.24-1.73-0.7-2.67
			c0.53-0.94,1.73-1.24,2.67-0.71l294.88,171.18c2.58,1.5,4.13,4.18,4.13,7.17c0.01,2.98-1.53,5.67-4.11,7.18l-324.45,186.39
			C891.63,2158.59,891.29,2158.67,890.97,2158.67z"/><path fill="#fff" d="M912.79,2170.1c14.09-8.14,14.17-21.34,0.17-29.47c-14-8.14-36.79-8.13-50.88,0s-14.16,21.33-0.16,29.47
				C875.92,2178.23,898.7,2178.23,912.79,2170.1z"/><path fill="#dbdee4" d="M887.33,2178.11c-9.57,0-19.13-2.11-26.39-6.33c-7.37-4.29-11.43-10.1-11.42-16.38
				c0.01-6.31,4.13-12.15,11.59-16.46c14.63-8.44,38.32-8.44,52.84,0c7.37,4.29,11.42,10.1,11.41,16.37
				c-0.01,6.31-4.13,12.16-11.6,16.47C906.47,2176,896.89,2178.11,887.33,2178.11z M887.56,2136.46c-8.86,0-17.73,1.95-24.5,5.86
				c-6.21,3.59-9.63,8.24-9.64,13.1c-0.01,4.82,3.36,9.44,9.49,12.99c13.42,7.8,35.38,7.81,48.91,0l0,0
				c6.21-3.59,9.64-8.24,9.65-13.1c0.01-4.82-3.36-9.44-9.48-12.99C905.27,2138.41,896.42,2136.46,887.56,2136.46z"/><path fill="#1fb6ff" d="M887.52,2146.07c-5.49,0-10.81,1.25-14.59,3.43c-3.03,1.75-4.77,3.9-4.78,5.9c0,1.98,1.7,4.1,4.68,5.83
				c3.75,2.18,9.04,3.42,14.53,3.42c5.49,0,10.8-1.25,14.58-3.43c3.04-1.75,4.78-3.91,4.78-5.91c0-1.98-1.7-4.1-4.68-5.83
				C898.3,2147.31,893.01,2146.07,887.52,2146.07z"/><path fill="#373b42" d="M1011.57,2075.46c-5.9,0-11.61,1.34-15.67,3.69c-3.26,1.88-5.13,4.19-5.13,6.34c0,2.12,1.83,4.4,5.03,6.26
			c4.02,2.34,9.71,3.68,15.6,3.68c5.89,0,11.6-1.34,15.65-3.68c3.26-1.88,5.13-4.19,5.13-6.34c0-2.12-1.83-4.4-5.02-6.26
			C1023.15,2076.8,1017.47,2075.46,1011.57,2075.46z"/><path fill="#dbdee4" d="M1810.11,944.1c-0.34,0-0.67-0.08-0.98-0.26l-422.07-245.35c-0.93-0.54-1.24-1.74-0.7-2.67
			c0.53-0.94,1.73-1.25,2.67-0.71l422.07,245.35c0.93,0.54,1.24,1.74,0.7,2.67C1811.44,943.76,1810.78,944.1,1810.11,944.1z"/><path fill="#373b42" d="M1604.54,810.81c-5.9,0-11.61,1.34-15.67,3.69c-3.26,1.88-5.13,4.19-5.13,6.34c0,2.12,1.83,4.41,5.03,6.27
			c4.02,2.34,9.71,3.68,15.61,3.68c5.9,0,11.6-1.34,15.66-3.68c3.26-1.88,5.13-4.2,5.14-6.35c0-2.12-1.83-4.4-5.03-6.26
			C1616.12,812.15,1610.43,810.81,1604.54,810.81z"/><path fill="#dbdee4" d="M2155.51,2198.02c-0.33,0-0.67-0.08-0.97-0.26L626.67,1315.64c-0.93-0.54-1.25-1.73-0.72-2.66
			c0.55-0.94,1.74-1.25,2.67-0.71l1527.86,882.11c0.93,0.54,1.25,1.73,0.72,2.66C2156.83,2197.67,2156.18,2198.02,2155.51,2198.02z"/><path fill="#dbdee4" d="M1242.69,1468.33c-0.67,0-1.32-0.35-1.68-0.97c-0.54-0.93-0.23-2.12,0.7-2.67l901.83-524.23
			c0.93-0.54,2.12-0.23,2.67,0.71c0.54,0.93,0.23,2.12-0.7,2.67l-901.83,524.23C1243.36,1468.24,1243.03,1468.33,1242.69,1468.33z"/><path fill="#bec4cd" d="M1114.12,369.46c-6.47-3.81-15.42-3.33-25.41,2.47L342.74,802.69c-0.1,0.1-0.19,0.1-0.29,0.19
					c-10.28,5.99-19.42,16.27-25.79,28.08c-5.81,10.66-9.52,22.46-9.42,33.22v5.43l1.52,624.21c0,11.14,4,19.03,10.37,22.75
					l-55.3-32.07c-6.28-3.71-10.28-11.61-10.28-22.84l-1.62-622.59V832c0-10.76,3.62-22.46,9.42-33.12
					c6.47-11.71,15.51-22.08,25.6-28.08c0.19-0.09,0.29-0.19,0.48-0.28l746.07-430.76c9.9-5.71,18.84-6.19,25.32-2.47
					L1114.12,369.46z"/><path fill="#373b42" d="M319.13,1518.5c-0.34,0-0.67-0.08-0.97-0.26l-0.01,0l0,0l-55.29-32.07c-7.26-4.29-11.25-13-11.25-24.53
					L249.99,832c0-10.52,3.43-22.61,9.66-34.05c7-12.65,16.34-22.89,26.32-28.82c0.3-0.19,0.45-0.27,0.63-0.37l745.94-430.69
					c10.16-5.86,19.85-6.74,27.25-2.47l55.18,32.1c0.04,0.02,0.08,0.05,0.12,0.07l0.02,0.01c0,0,0,0,0.01,0.01
					c0.92,0.54,1.23,1.74,0.69,2.67c-0.56,0.92-1.74,1.23-2.67,0.7l-0.15-0.09c-6.11-3.51-14.38-2.61-23.29,2.57L343.71,804.38
					c-9.98,5.84-18.88,15.55-25.34,27.5c-6.02,11.05-9.27,22.51-9.18,32.27v5.44l1.52,624.2c0,10.04,3.34,17.52,9.39,21.05
					l0.01,0.01c0.01,0,0.01,0,0.01,0c0.93,0.54,1.24,1.73,0.7,2.66C320.46,1518.15,319.8,1518.5,319.13,1518.5z M1049.45,336.84
					c-4.56,0-9.66,1.55-14.96,4.61L288.42,772.21c-0.28,0.18-0.43,0.26-0.61,0.35c-9.24,5.51-18.08,15.22-24.74,27.26
					c-5.92,10.87-9.18,22.3-9.18,32.18v7.04l1.61,622.59c0,10.1,3.31,17.61,9.32,21.16l44.99,26.1c-1.96-4.17-3-9.27-3-15.09
					l-1.52-629.63c-0.1-10.4,3.34-22.53,9.66-34.15c6.79-12.57,16.21-22.81,26.52-28.83l746.27-430.95
					c5.23-3.04,10.33-4.76,15.05-5.13l-44.94-26.14C1055.36,337.55,1052.52,336.84,1049.45,336.84z"/><path fill="#f0f2f5" d="M342.45,802.88c-10.28,5.99-19.42,16.27-25.79,28.08c-5.81,10.66-9.52,22.46-9.42,33.22v5.43
					c-0.1,0.38-0.19,0.86-0.29,1.24l-55.01-31.79V832c0-10.76,3.62-22.46,9.42-33.12c6.47-11.71,15.51-22.08,25.6-28.08
					L342.45,802.88z"/><path d="M344.48,1624.01c-19.65,11.34-19.75,29.78-0.23,41.12l472.49,274.58c19.52,11.34,51.35,11.34,71,0l746.07-430.74
				c19.7-11.38,19.75-29.78,0.23-41.12l-472.49-274.58c-19.52-11.34-51.29-11.38-71,0L344.48,1624.01z" opacity=".1"/><path fill="#fff" d="M344.48,1514.12c-19.65,11.34-19.75,29.78-0.23,41.12l472.49,274.58c19.52,11.34,51.35,11.34,71,0
					l746.07-430.74c19.7-11.38,19.75-29.78,0.23-41.12l-472.49-274.58c-19.52-11.34-51.29-11.38-71,0L344.48,1514.12z"/><path fill="#373b42" d="M852.19,1840.25c-13.21,0-26.41-2.91-36.44-8.74l-472.48-274.58c-10.03-5.83-15.55-13.71-15.54-22.17
					c0.01-8.53,5.61-16.46,15.78-22.32l0,0l746.07-430.74c20.18-11.65,52.9-11.64,72.96,0l472.48,274.58
					c10.04,5.84,15.57,13.72,15.56,22.18c-0.02,8.51-5.63,16.44-15.8,22.31l-746.07,430.74
					C878.62,1837.34,865.4,1840.25,852.19,1840.25z M345.46,1515.81c-8.91,5.15-13.82,11.87-13.83,18.95
					c-0.01,7.02,4.82,13.69,13.61,18.8l472.48,274.58c18.96,11.03,49.94,11.03,69.04,0l746.07-430.74
					c8.92-5.15,13.84-11.88,13.85-18.95c0.01-7.02-4.84-13.69-13.63-18.8l-472.48-274.58c-18.96-11.02-49.94-11.02-69.04,0
					L345.46,1515.81z"/><path fill="#dbdee4" d="M895.66,1270.33c-4.53,2.62-4.52,6.84-0.05,9.44l43.58,25.32c4.5,2.62,11.76,2.62,16.29,0l51.13-29.52
						c4.53-2.62,4.55-6.82,0.05-9.44l-43.58-25.32c-4.46-2.59-11.76-2.62-16.29,0L895.66,1270.33z"/><path fill="#dbdee4" d="M988.58,1216.68c-4.53,2.62-4.52,6.84-0.05,9.44l43.58,25.32c4.5,2.62,11.76,2.62,16.29,0l51.13-29.52
						c4.53-2.62,4.55-6.82,0.05-9.44l-43.58-25.32c-4.46-2.59-11.76-2.62-16.29,0L988.58,1216.68z"/><path fill="#dbdee4" d="M1166.24,1212.27c-4.53,2.62-4.51,6.84-0.05,9.44l43.58,25.32c4.5,2.62,11.76,2.62,16.29,0l51.13-29.52
						c4.53-2.62,4.55-6.82,0.05-9.44l-43.58-25.32c-4.46-2.59-11.76-2.62-16.29,0L1166.24,1212.27z"/><path fill="#dbdee4" d="M1081.5,1163.03c-4.53,2.62-4.52,6.84-0.05,9.44l43.58,25.32c4.5,2.62,11.76,2.62,16.29,0l51.13-29.52
						c4.53-2.62,4.55-6.82,0.05-9.44l-43.58-25.32c-4.46-2.59-11.76-2.62-16.29,0L1081.5,1163.03z"/><path fill="#dbdee4" d="M1073.31,1265.92c-4.53,2.62-4.52,6.84-0.05,9.44l43.58,25.32c4.5,2.62,11.76,2.62,16.29,0l51.13-29.52
						c4.53-2.62,4.55-6.82,0.05-9.44l-43.58-25.32c-4.46-2.59-11.76-2.62-16.29,0L1073.31,1265.92z"/><path fill="#dbdee4" d="M1065.12,1368.81c-4.53,2.62-4.51,6.84-0.05,9.44l43.58,25.32c4.46,2.59,11.76,2.62,16.29,0l51.13-29.52
						c4.53-2.62,4.51-6.84,0.05-9.44l-43.58-25.32c-4.46-2.59-11.76-2.62-16.29,0L1065.12,1368.81z"/><path fill="#dbdee4" d="M980.39,1319.57c-4.53,2.62-4.52,6.84-0.05,9.44l43.58,25.32c4.5,2.62,11.76,2.62,16.29,0l51.13-29.52
						c4.53-2.62,4.55-6.82,0.05-9.44l-43.58-25.32c-4.46-2.59-11.76-2.62-16.29,0L980.39,1319.57z"/><path fill="#dbdee4" d="M523.92,1484.95c-4.49,2.59-4.51,6.84-0.05,9.44l43.58,25.32c4.5,2.62,11.8,2.59,16.29,0l51.17-29.55
							c4.53-2.62,4.55-6.82,0.05-9.44l-43.58-25.32c-4.46-2.59-11.76-2.62-16.29,0L523.92,1484.95z"/><path fill="#dbdee4" d="M431,1538.59c-4.49,2.59-4.51,6.84-0.05,9.44l43.58,25.32c4.5,2.62,11.8,2.59,16.29,0l51.17-29.55
							c4.53-2.62,4.55-6.82,0.05-9.44l-43.58-25.32c-4.46-2.59-11.76-2.62-16.29,0L431,1538.59z"/><path fill="#dbdee4" d="M608.66,1534.19c-4.49,2.59-4.51,6.84-0.05,9.44l43.58,25.32c4.5,2.62,11.8,2.59,16.29,0l51.17-29.55
							c4.53-2.62,4.55-6.82,0.05-9.44l-43.58-25.32c-4.46-2.59-11.76-2.62-16.29,0L608.66,1534.19z"/><path fill="#dbdee4" d="M515.73,1587.84c-4.49,2.59-4.51,6.84-0.05,9.44l43.58,25.32c4.5,2.62,11.8,2.59,16.29,0l51.17-29.55
							c4.53-2.62,4.55-6.82,0.05-9.44l-43.58-25.32c-4.46-2.59-11.76-2.62-16.29,0L515.73,1587.84z"/><path fill="#dbdee4" d="M616.85,1431.3c-4.49,2.59-4.51,6.84-0.05,9.44l43.58,25.32c4.5,2.62,11.8,2.59,16.29,0l51.17-29.55
						c4.53-2.62,4.55-6.82,0.05-9.44l-43.58-25.32c-4.46-2.59-11.76-2.62-16.29,0L616.85,1431.3z"/><path fill="#dbdee4" d="M600.47,1637.08c-4.49,2.59-4.51,6.84-0.05,9.44l43.58,25.32c4.46,2.59,11.8,2.59,16.29,0l51.17-29.55
						c4.53-2.62,4.51-6.84,0.05-9.44l-43.58-25.32c-4.46-2.59-11.76-2.62-16.29,0L600.47,1637.08z"/><path fill="#dbdee4" d="M693.39,1583.43c-4.49,2.59-4.51,6.84-0.05,9.44l43.58,25.32c4.46,2.59,11.8,2.59,16.29,0l51.17-29.55
						c4.53-2.62,4.51-6.84,0.05-9.44l-43.58-25.32c-4.46-2.59-11.76-2.62-16.29,0L693.39,1583.43z"/><path fill="#dbdee4" d="M786.31,1529.78c-4.49,2.59-4.51,6.84-0.05,9.44l43.58,25.32c4.46,2.59,11.8,2.59,16.29,0l237.02-136.84
						c4.53-2.62,4.52-6.84,0.05-9.44l-43.58-25.32c-4.46-2.59-11.76-2.62-16.29,0L786.31,1529.78z"/><path fill="#dbdee4" d="M794.5,1426.89c-4.49,2.59-4.51,6.84-0.05,9.44l43.58,25.32c4.5,2.62,11.8,2.59,16.29,0l51.17-29.55
							c4.53-2.62,4.55-6.82,0.05-9.44l-43.58-25.32c-4.46-2.59-11.76-2.62-16.29,0L794.5,1426.89z"/><path fill="#dbdee4" d="M701.58,1480.54c-4.49,2.59-4.51,6.84-0.05,9.44l43.58,25.32c4.5,2.62,11.8,2.59,16.29,0l51.17-29.55
							c4.53-2.62,4.55-6.82,0.05-9.44l-43.58-25.32c-4.46-2.59-11.76-2.62-16.29,0L701.58,1480.54z"/><path fill="#dbdee4" d="M887.47,1373.22c-4.53,2.62-4.52,6.84-0.05,9.44l43.58,25.32c4.5,2.62,11.76,2.62,16.29,0l51.13-29.52
						c4.53-2.62,4.55-6.82,0.05-9.44l-43.58-25.32c-4.46-2.59-11.76-2.62-16.29,0L887.47,1373.22z"/><path fill="#dbdee4" d="M802.73,1323.97c-4.53,2.62-4.52,6.84-0.05,9.44l43.58,25.32c4.5,2.62,11.76,2.62,16.29,0l51.13-29.52
						c4.53-2.62,4.55-6.82,0.05-9.44l-43.58-25.32c-4.46-2.59-11.76-2.62-16.29,0L802.73,1323.97z"/><path fill="#dbdee4" d="M709.77,1377.65c-4.49,2.59-4.51,6.84-0.05,9.44l43.58,25.32c4.5,2.62,11.8,2.59,16.29,0l51.17-29.55
						c4.53-2.62,4.55-6.82,0.05-9.44l-43.58-25.32c-4.46-2.59-11.76-2.62-16.29,0L709.77,1377.65z"/><path fill="#dbdee4" d="M1250.97,1261.51c-4.53,2.62-4.51,6.84-0.05,9.44l43.58,25.32c4.46,2.59,11.76,2.62,16.29,0l51.13-29.52
						c4.53-2.62,4.52-6.84,0.05-9.44l-43.58-25.32c-4.46-2.59-11.76-2.62-16.29,0L1250.97,1261.51z"/><path fill="#dbdee4" d="M1158.05,1315.16c-4.53,2.62-4.51,6.84-0.05,9.44l43.58,25.32c4.46,2.59,11.76,2.62,16.29,0l51.13-29.52
						c4.53-2.62,4.52-6.84,0.05-9.44l-43.58-25.32c-4.46-2.59-11.76-2.62-16.29,0L1158.05,1315.16z"/><path fill="#373b42" d="M342.7,802.66c-19.65,11.34-35.56,38.91-35.5,61.48l1.55,629.62c0.06,22.58,16.08,31.7,35.73,20.36
					l746.07-430.74c19.7-11.38,35.56-38.91,35.5-61.48l-1.55-629.62c-0.06-22.58-16.03-31.74-35.73-20.36L342.7,802.66z"/><path fill="#373b42" d="M328.52,1520.97c-3.74,0-7.21-0.88-10.28-2.65c-7.35-4.23-11.41-12.94-11.44-24.55l-1.55-629.62
					c-0.06-23.19,16.3-51.53,36.47-63.17l746.07-430.74c10.17-5.87,19.84-6.77,27.23-2.53c7.33,4.22,11.39,12.95,11.43,24.57
					l1.55,629.62c0.07,23.19-16.3,51.53-36.47,63.17l-746.07,430.74C339.53,1519.24,333.76,1520.97,328.52,1520.97z M1104.75,368.96
					c-4.56,0-9.67,1.56-15.01,4.64L343.68,804.34c-19.1,11.03-34.59,37.85-34.52,59.79l1.55,629.62c0.03,10.16,3.4,17.68,9.48,21.18
					c6.14,3.53,14.42,2.64,23.32-2.5l746.07-430.74c19.1-11.03,34.59-37.85,34.52-59.79l-1.55-629.62
					c-0.03-10.17-3.4-17.7-9.48-21.2C1110.62,369.66,1107.81,368.96,1104.75,368.96z M342.7,802.66h0.05H342.7z"/><path fill="#fff" d="M328.52,1470.82c-3.42,0-3.7-7.06-3.71-9.22l-1.55-597.51c-0.05-16.84,12.79-39.06,27.47-47.53
					l746.07-430.74c4.28-2.47,6.99-2.74,7.96-2.74c3.48,0,3.68,7.69,3.69,9.23l1.54,597.51c0.05,16.85-12.79,39.06-27.47,47.53
					L336.45,1468.1C332.19,1470.56,329.49,1470.82,328.52,1470.82z"/><path fill="#373b42" d="M328.52,1472.77c-3.62,0-5.63-3.96-5.66-11.16l-1.55-597.51c-0.05-17.44,13.24-40.44,28.44-49.22
					l746.08-430.74c4.52-2.61,7.54-3,8.93-3c3.55,0,5.6,4.07,5.63,11.17l1.55,597.52c0.05,17.45-13.24,40.45-28.44,49.22
					l-746.08,430.74C332.92,1472.38,329.92,1472.77,328.52,1472.77z M1104.76,385.03c-0.63,0-3,0.18-6.98,2.47L351.7,818.25
					c-14.16,8.18-26.54,29.6-26.49,45.84l1.55,597.5c0.02,4.84,1.13,7.28,1.76,7.28c0.63,0,2.99-0.18,6.95-2.46l746.08-430.74
					c14.16-8.17,26.54-29.59,26.49-45.84l-1.55-597.51C1106.47,387.61,1105.34,385.03,1104.76,385.03z"/><path fill="#fff" d="M1110.02,989.85c0,16.82-12.81,39.06-27.47,47.48l-746.1,430.79c-4.27,2.42-6.95,2.74-7.9,2.74
						c-3.44,0-3.76-7.07-3.76-9.24l-1.34-537.51l-0.19-60.03c-0.07-16.82,12.81-39.06,27.47-47.54l746.1-430.72
						c4.27-2.49,6.95-2.74,7.9-2.74c3.5,0,3.7,7.71,3.7,9.24l0.26,78.45L1110.02,989.85z"/><path fill="#373b42" d="M328.55,1472.8c-5.16,0-5.71-7.82-5.71-11.19l-1.53-597.53c-0.06-17.43,13.23-40.44,28.44-49.24
						l746.1-430.72c4.48-2.61,7.49-3,8.88-3c5.09,0,5.64,7.82,5.64,11.19l0.26,78.44l1.34,519.09v0c0,17.49-13.3,40.47-28.45,49.17
						L337.43,1469.8C332.65,1472.5,329.63,1472.8,328.55,1472.8z M1104.73,385.02c-0.62,0-2.98,0.18-6.92,2.48L351.7,818.22
						c-14.17,8.19-26.55,29.62-26.49,45.85l0.19,60.03l1.34,537.51c0,4.45,1.07,7.29,1.81,7.29c0.43,0,2.76-0.12,6.94-2.49
						l746.08-430.78c14.11-8.1,26.49-29.5,26.49-45.79l-1.6-597.53C1106.47,387.93,1105.42,385.02,1104.73,385.02z"/><path fill="#373b42" d="M319.13,1518.5c-0.34,0-0.67-0.08-0.97-0.26l-0.01,0l0,0l-55.29-32.07c-7.26-4.29-11.25-13-11.25-24.53
					L249.99,832c0-10.52,3.43-22.61,9.66-34.05c7-12.65,16.34-22.89,26.32-28.82c0.3-0.19,0.45-0.27,0.63-0.37l745.94-430.69
					c10.16-5.86,19.85-6.74,27.25-2.47l55.18,32.1c0.04,0.02,0.08,0.05,0.12,0.07l0.02,0.01c0,0,0,0,0.01,0.01
					c0.92,0.54,1.23,1.74,0.69,2.67c-0.56,0.92-1.74,1.23-2.67,0.7l-0.15-0.09c-6.11-3.51-14.38-2.61-23.29,2.57L343.71,804.38
					c-9.98,5.84-18.88,15.55-25.34,27.5c-6.02,11.05-9.27,22.51-9.18,32.27v5.44l1.52,624.2c0,10.04,3.34,17.52,9.39,21.05
					l0.01,0.01c0.01,0,0.01,0,0.01,0c0.93,0.54,1.24,1.73,0.7,2.66C320.46,1518.15,319.8,1518.5,319.13,1518.5z M1049.45,336.84
					c-4.56,0-9.66,1.55-14.96,4.61L288.42,772.21c-0.28,0.18-0.43,0.26-0.61,0.35c-9.24,5.51-18.08,15.22-24.74,27.26
					c-5.92,10.87-9.18,22.3-9.18,32.18v7.04l1.61,622.59c0,10.1,3.31,17.61,9.32,21.16l44.99,26.1c-1.96-4.17-3-9.27-3-15.09
					l-1.52-629.63c-0.1-10.4,3.34-22.53,9.66-34.15c6.79-12.57,16.21-22.81,26.52-28.83l746.27-430.95
					c5.23-3.04,10.33-4.76,15.05-5.13l-44.94-26.14C1055.36,337.55,1052.52,336.84,1049.45,336.84z"/><path fill="#373b42" d="M307.32,955.93c-0.34,0-0.67-0.08-0.98-0.27l-55.32-32.28c-0.93-0.54-1.24-1.74-0.7-2.67
				c0.53-0.93,1.72-1.25,2.67-0.7l55.32,32.28c0.93,0.54,1.24,1.74,0.7,2.67C308.64,955.58,307.99,955.93,307.32,955.93z"/><path fill="#373b42" d="M308.6,1451.71c-0.34,0-0.67-0.08-0.97-0.26l-55.24-32.04c-0.94-0.54-1.25-1.73-0.71-2.67
				c0.53-0.94,1.74-1.25,2.66-0.71l55.24,32.04c0.94,0.54,1.25,1.73,0.71,2.67C309.93,1451.36,309.27,1451.71,308.6,1451.71z"/><path fill="#dbdee4" d="M948.4,1559.53c-13.08,7.55-13.15,19.79-0.15,27.34l116.63,67.78c13,7.55,34.12,7.55,47.2,0l218.51-126.16
					c13.15-7.59,13.22-19.83,0.22-27.38l-116.63-67.78c-13-7.55-34.12-7.55-47.27,0.04L948.4,1559.53z"/><path fill="#bec4cd" d="M1648.86,1448.55c0.08,7.47-4.82,14.93-14.77,20.64L888,1899.96c-3.13,1.85-6.58,3.29-10.2,4.5
						c-8.27,2.81-17.67,4.09-27.06,3.93h-0.08c-8.99-0.16-17.82-1.69-25.53-4.58c-2.89-1.12-5.62-2.41-8.11-3.85l-472.45-274.52
						c-9.72-5.7-14.61-13.09-14.61-20.56l-0.32-70.02c0.08,7.31,4.98,14.69,14.61,20.39l472.45,274.52
						c2.57,1.53,5.38,2.81,8.43,3.93c7.71,2.89,16.62,4.42,25.53,4.58v-0.08c9.4,0.16,18.87-1.12,27.14-4.01
						c3.53-1.21,6.9-2.65,9.96-4.42l746.09-430.77c9.8-5.62,14.77-13.25,14.77-20.64L1648.86,1448.55z"/><path fill="#373b42" d="M371.32,1642.89c-1.07,0-1.95-0.87-1.95-1.95V1571c0-1.08,0.88-1.95,1.95-1.95c1.07,0,1.95,0.87,1.95,1.95
						v69.94C373.27,1642.02,372.39,1642.89,371.32,1642.89z"/><path fill="#373b42" d="M918.35,1884.41c-1.07,0-1.95-0.87-1.95-1.95v-70.34c0-1.08,0.88-1.95,1.95-1.95
						c1.07,0,1.95,0.87,1.95,1.95v70.34C920.3,1883.54,919.43,1884.41,918.35,1884.41z"/><path fill="#373b42" d="M1594.51,1494.02c-1.07,0-1.95-0.87-1.95-1.95v-70.34c0-1.08,0.88-1.95,1.95-1.95
						c1.07,0,1.95,0.87,1.95,1.95v70.34C1596.46,1493.15,1595.58,1494.02,1594.51,1494.02z"/><path fill="#dbdee4" d="M877.81,1834.2v70.26c-8.27,2.81-17.67,4.09-27.06,3.93h-0.08c-8.99-0.16-17.82-1.69-25.53-4.58v-70.1
						c7.71,2.89,16.62,4.42,25.53,4.58v-0.08C860.06,1838.38,869.54,1837.1,877.81,1834.2z"/><path fill="#373b42" d="M852.41,1910.36c-0.56,0-1.13,0-1.71-0.02c-13.26-0.26-25.55-3.35-34.67-8.7l-472.45-274.52
						c-10.05-5.9-15.58-13.79-15.58-22.24l-0.32-70.01c-0.01-1.07,0.86-1.95,1.93-1.96c0.01,0,0.01,0,0.02,0
						c1.07,0,1.94,0.86,1.95,1.93c0,0,0,0.01,0,0.01v0c0.08,6.91,4.93,13.56,13.65,18.72l472.44,274.52
						c8.61,5.01,20.14,7.92,32.51,8.24c0.16-0.05,0.11-0.08,0.51-0.07c13.7,0.26,26.54-2.65,36.08-8.17l746.09-430.78
						c8.77-5.03,13.8-11.94,13.8-18.95c0-1.07,0.87-1.95,1.95-1.95l0,0c1.07,0,1.95,0.87,1.95,1.94l0.24,70.18
						c0.08,8.54-5.51,16.47-15.76,22.33l-746.08,430.77C879.31,1907.29,866.38,1910.36,852.41,1910.36z M331.64,1546.64l0.27,58.24
						c0,7.02,4.85,13.72,13.65,18.88L818,1898.28c8.56,5.02,20.18,7.92,32.7,8.17c13.98,0.25,26.86-2.66,36.31-8.17l746.09-430.78
						c8.98-5.14,13.87-11.86,13.81-18.93c0,0,0-0.01,0-0.01l-0.21-58.39c-2.69,3.96-6.72,7.57-11.89,10.53l-746.08,430.77
						c-10.02,5.79-23.45,8.76-37.58,8.7c-0.17,0.05-0.33,0.11-0.53,0.07c-13.22-0.26-25.62-3.37-34.91-8.77l-472.45-274.52
						C338.21,1553.95,334.29,1550.45,331.64,1546.64z"/><g><path fill="#373b42" d="M423.89,1618.54c1.67,0.96,3.03,3.33,3.03,5.28l-0.05,20.82c-0.01,1.95-1.38,2.7-3.05,1.74l-2.41-1.39
							l-0.01,5.74c-0.01,1.95-1.38,2.73-3.05,1.77l-14.36-8.29c-1.67-0.96-3.03-3.33-3.03-5.28l0.01-5.74l-2.41-1.39
							c-1.67-0.96-3.03-3.29-3.03-5.24l0.05-20.82c0.01-1.95,1.38-2.73,3.05-1.77L423.89,1618.54z"/></g><g><path fill="#373b42" d="M1043.13,400.22c-0.34,0-0.67-0.08-0.98-0.26l-55.32-32.12c-0.93-0.54-1.24-1.74-0.7-2.67
			c0.53-0.94,1.72-1.25,2.67-0.71l55.32,32.12c0.93,0.54,1.24,1.74,0.7,2.67C1044.45,399.88,1043.8,400.22,1043.13,400.22z"/></g><g><path fill="#dbdee4" d="M1042.96,314.43c-6.98-4.09-16.65-3.49-27.32,2.62L488.24,621.58c-4.9,2.82-9.53,6.58-13.83,11.01
								c-10.81,11.08-19.26,26.31-22.69,41.15c-1.14,4.77-1.75,9.53-1.75,14.1l1.21,775.96c0,12.15,4.36,20.61,11.21,24.63
								l-42.89-24.84c-6.85-4.03-11.14-12.55-11.21-24.7l-1.21-776.03c0-4.5,0.54-9.2,1.68-13.96c3.42-14.83,11.81-30,22.69-41.15
								c4.23-4.43,8.99-8.26,13.89-11.07l527.39-304.47c10.67-6.18,20.34-6.71,27.32-2.75L1042.96,314.43z"/><path fill="#f0f2f5" d="M474.42,632.58c-10.81,11.08-19.26,26.31-22.69,41.15l-42.96-24.84c3.42-14.83,11.81-30,22.69-41.15
									L474.42,632.58z"/><path fill="#373b42" d="M462.4,1490.37c-0.34,0-0.67-0.08-0.97-0.26l-0.02-0.01l-42.88-24.83
								c-7.79-4.58-12.11-13.95-12.18-26.38l-1.21-776.03c0-4.75,0.58-9.6,1.73-14.42c3.52-15.22,11.97-30.56,23.19-42.06
								c4.38-4.58,9.34-8.54,14.32-11.4l527.39-304.46c10.88-6.3,21.28-7.29,29.26-2.76l42.78,24.9c0.05,0.03,0.09,0.05,0.14,0.08
								c0.92,0.54,1.23,1.74,0.69,2.67c-0.55,0.93-1.74,1.25-2.67,0.7l-0.13-0.07c-6.58-3.8-15.55-2.85-25.23,2.7L489.22,623.26
								c-4.58,2.63-9.08,6.22-13.4,10.68c-10.58,10.85-18.88,25.89-22.2,40.23c-1.12,4.69-1.69,9.28-1.69,13.66l1.21,775.96
								c0,10.92,3.64,19.07,10.25,22.96c0.92,0.54,1.23,1.73,0.69,2.66C463.73,1490.02,463.07,1490.37,462.4,1490.37z
								 M990.02,288.86c-4.96,0-10.52,1.69-16.3,5.04L446.33,598.36c-4.67,2.69-9.32,6.4-13.46,10.73
								c-10.59,10.86-18.88,25.9-22.2,40.24c-1.07,4.53-1.62,9.08-1.62,13.52l1.21,776.02c0.06,10.99,3.7,19.17,10.25,23.03
								l32.23,18.66c-2.28-4.59-3.49-10.27-3.49-16.78l-1.21-775.96c0-4.68,0.6-9.58,1.8-14.55c3.46-15,12.14-30.72,23.19-42.06
								c4.56-4.71,9.36-8.52,14.25-11.33l527.39-304.53c5.81-3.33,11.44-5.16,16.63-5.46l-32.21-18.75
								C996.4,289.62,993.34,288.86,990.02,288.86z"/><path fill="#373b42" d="M450.19,766.02c-0.34,0-0.67-0.08-0.97-0.26l-42.89-24.83c-0.94-0.54-1.25-1.73-0.72-2.67
								c0.55-0.93,1.74-1.25,2.67-0.71l42.89,24.83c0.94,0.54,1.25,1.73,0.72,2.67C451.51,765.67,450.86,766.02,450.19,766.02z"/><path fill="#373b42" d="M451.12,1433.94c-0.34,0-0.67-0.08-0.98-0.26l-42.89-24.9c-0.93-0.54-1.24-1.73-0.7-2.67
								c0.53-0.94,1.73-1.25,2.67-0.71l42.89,24.9c0.93,0.54,1.24,1.73,0.7,2.67C452.45,1433.59,451.79,1433.94,451.12,1433.94z"/><path fill="#373b42" d="M987.24,335.36c-0.34,0-0.67-0.08-0.97-0.26l-42.82-24.83c-0.94-0.54-1.25-1.73-0.71-2.67
								c0.53-0.94,1.74-1.25,2.66-0.71l42.82,24.83c0.94,0.54,1.25,1.73,0.71,2.67C988.57,335.02,987.91,335.36,987.24,335.36z"/><path fill="#373b42" d="M1054.17,339c-0.07-24.34-17.35-34.13-38.53-21.9L488.26,621.57c-21.23,12.26-38.35,41.92-38.28,66.25
								l0.22,76.13l604.19-348.82L1054.17,339z"/><path fill="#373b42" d="M450.19,765.9c-0.34,0-0.67-0.09-0.97-0.26c-0.6-0.35-0.97-0.99-0.97-1.69l-0.21-76.13
								c-0.07-24.92,17.54-55.4,39.26-67.94l527.37-304.47c10.92-6.3,21.31-7.27,29.22-2.71c7.86,4.52,12.2,13.86,12.24,26.3
								l0.21,76.13c0,0.7-0.37,1.34-0.97,1.69L451.16,765.64C450.86,765.81,450.52,765.9,450.19,765.9z M1032.86,313.77
								c-4.94,0-10.48,1.69-16.25,5.02L489.24,623.26c-20.64,11.92-37.38,40.88-37.31,64.56l0.21,72.76l600.3-346.57l-0.21-75
								c-0.03-10.98-3.69-19.13-10.28-22.92C1039.25,314.54,1036.19,313.77,1032.86,313.77z"/><g><path fill="#fff" d="M450.19,763.95l1.02,699.86c0.07,24.39,17.31,34.21,38.53,21.96l527.38-304.47
								c21.18-12.23,38.35-41.92,38.28-66.31l-1.02-699.86L450.19,763.95z"/><path fill="#373b42" d="M472.49,1493.01c-4,0-7.7-0.94-10.98-2.83c-7.86-4.52-12.21-13.89-12.24-26.37l-1.03-699.86
								c0-0.7,0.37-1.34,0.97-1.69l604.19-348.82c0.61-0.35,1.34-0.35,1.95,0c0.6,0.35,0.97,0.99,0.97,1.69l1.03,699.86
								c0.07,24.95-17.54,55.46-39.26,68l-527.38,304.47C484.32,1491.15,478.13,1493.01,472.49,1493.01z M452.14,765.07l1.03,698.74
								c0.03,11.03,3.69,19.2,10.29,23c6.64,3.82,15.64,2.86,25.32-2.72l527.38-304.47c20.64-11.92,37.38-40.91,37.31-64.62
								l-1.02-696.49L452.14,765.07z"/></g><g><path fill="#fff" d="M498.53,655.68c9.58-5.53,17.28-1.14,17.31,9.86c0.03,10.91-7.62,24.26-17.2,29.79
									c-9.58,5.53-17.28,1.05-17.31-9.87C481.3,674.46,488.95,661.21,498.53,655.68z"/><path fill="#fff" d="M570.57,614.08c9.49-5.48,17.28-1.14,17.31,9.86c0.03,10.91-7.7,24.31-17.2,29.79
									c-9.58,5.53-17.28,1.05-17.31-9.87C553.34,632.87,561,619.61,570.57,614.08z"/><path fill="#fff" d="M642.63,572.44c9.52-5.49,17.24-1.1,17.27,9.94c0.03,10.94-7.64,24.32-17.16,29.81
									c-9.6,5.54-17.32,1.05-17.35-9.89C625.35,591.27,633.03,577.98,642.63,572.44z"/></g></g><g><path fill="#1fb6ff" d="M748.96,867.23c38.13-22.04,72.25-21.57,94.64-2.81c-22.21,44.41-56.21,84.26-94.35,106.3
						c-38.13,22.04-72.25,21.56-94.64,2.92C676.82,929.12,710.82,889.27,748.96,867.23z"/><path fill="#dbdee4" d="M748.62,747.97c23.69-13.69,42.96-2.75,43.04,24.55c0.08,27.24-19.08,60.45-42.76,74.14
						c-23.68,13.69-42.96,2.69-43.04-24.55C705.78,794.81,724.94,761.66,748.62,747.97z"/></g><g><path fill="#373b42" d="M694.5,989.46c-15.64,0-29.67-4.75-41.1-14.29c-18.16-15.1-28.2-41.43-28.27-74.14
				c-0.23-77.9,54.65-173.11,122.34-212.23c33.27-19.25,64.66-22.34,88.42-8.68c23.61,13.57,36.66,42.01,36.78,80.09c0,0,0,0,0,0
				c0.07,32.5-9.64,69.83-27.34,105.1c-23.31,46.58-57.96,85.63-95.09,107.13C730.6,983.77,711.59,989.46,694.5,989.46z
				 M803.15,675.63c-16.43,0-34.73,5.55-53.73,16.54c-66.61,38.5-120.62,132.18-120.39,208.84c0.06,31.54,9.61,56.8,26.87,71.15
				c22.61,18.85,56.29,17.73,92.4-3.1c36.48-21.13,70.58-59.58,93.55-105.5c17.43-34.74,26.99-71.44,26.93-103.34l0,0
				c-0.11-36.63-12.47-63.87-34.82-76.72C824.8,678.24,814.41,675.63,803.15,675.63z"/></g><g><path fill="#fff" d="M937.82,903.23c12.32-7.12,22.33-1.42,22.37,12.7l0.15,52.95c0.04,14.16-9.9,31.37-22.22,38.49
				l-338.5,195.43c-12.29,7.09-22.29,1.39-22.33-12.77l-0.15-52.95c-0.04-14.12,9.9-31.33,22.18-38.42L937.82,903.23z"/><path fill="#373b42" d="M589.64,1207.81c-2.46,0-4.74-0.58-6.78-1.75c-4.83-2.78-7.5-8.47-7.52-16.02l-0.14-52.96
				c-0.05-14.72,10.34-32.72,23.16-40.11l338.5-195.43l0,0c6.61-3.83,12.93-4.38,17.78-1.58c4.82,2.78,7.49,8.44,7.51,15.97
				l0.15,52.95c0.04,14.75-10.36,32.77-23.19,40.18l-338.5,195.43C596.78,1206.7,593.05,1207.81,589.64,1207.81z M938.8,904.92
				l-338.5,195.43c-11.73,6.78-21.25,23.25-21.21,36.73l0.14,52.96c0.02,6.1,1.99,10.6,5.57,12.65c3.59,2.05,8.51,1.5,13.84-1.57
				l338.5-195.43c11.75-6.79,21.28-23.29,21.24-36.8l-0.15-52.95c-0.02-6.07-1.99-10.55-5.55-12.6
				C949.11,901.27,944.16,901.83,938.8,904.92z"/></g><g><path fill="#1fb6ff" d="M643.19,1095.44c0.86-0.5,1.55-0.1,1.56,0.89l0.05,17.87l13.45-16.7c0.24-0.3,0.51-0.54,0.78-0.69
					c0.54-0.31,1.06-0.29,1.35,0.13l3.67,5.13c0.43,0.61,0.19,1.85-0.57,2.78l-13.43,16.71l13.48,1.16
					c0.76,0.07,1.01,1.01,0.58,2.11l-3.62,9.36c-0.29,0.75-0.81,1.37-1.35,1.68c-0.27,0.15-0.53,0.23-0.78,0.21l-13.5-1.17
					l0.05,17.87c0,1-0.69,2.2-1.55,2.7l-7.29,4.21c-0.87,0.5-1.57,0.11-1.57-0.9l-0.05-17.87L621,1157.63
					c-0.24,0.3-0.5,0.53-0.77,0.68c-0.53,0.31-1.06,0.29-1.36-0.12l-3.67-5.15c-0.41-0.61-0.17-1.84,0.57-2.78l13.45-16.7
					l-13.5-1.17c-0.74-0.06-0.99-1.02-0.58-2.11l3.62-9.34c0.3-0.76,0.82-1.38,1.36-1.69c0.26-0.15,0.53-0.23,0.77-0.2l13.5,1.15
					l-0.05-17.87c0-0.99,0.69-2.18,1.56-2.69L643.19,1095.44z"/><path fill="#1fb6ff" d="M707.75,1058.16c0.86-0.5,1.55-0.1,1.56,0.89l0.05,17.87l13.45-16.7c0.24-0.3,0.51-0.54,0.78-0.69
					c0.54-0.31,1.06-0.29,1.35,0.13l3.67,5.13c0.43,0.61,0.19,1.85-0.57,2.78l-13.45,16.72l13.5,1.15c0.76,0.07,1.01,1.01,0.58,2.11
					l-3.62,9.36c-0.29,0.75-0.81,1.37-1.35,1.68c-0.27,0.15-0.53,0.23-0.78,0.21l-13.5-1.17l0.05,17.87c0,1-0.69,2.2-1.55,2.7
					l-7.29,4.21c-0.87,0.5-1.57,0.11-1.57-0.9l-0.05-17.87l-13.45,16.72c-0.24,0.3-0.5,0.53-0.77,0.68
					c-0.53,0.31-1.06,0.29-1.36-0.12l-3.67-5.15c-0.43-0.61-0.17-1.84,0.57-2.78l13.45-16.7l-13.5-1.17
					c-0.74-0.06-1.01-1.01-0.58-2.11l3.62-9.34c0.3-0.76,0.82-1.38,1.36-1.69c0.26-0.15,0.53-0.23,0.77-0.2l13.5,1.15l-0.05-17.87
					c0-0.99,0.69-2.18,1.56-2.69L707.75,1058.16z"/><path fill="#1fb6ff" d="M772.31,1020.89c0.86-0.5,1.55-0.1,1.56,0.89l0.05,17.87l13.45-16.7c0.24-0.3,0.51-0.54,0.78-0.69
					c0.54-0.31,1.06-0.29,1.35,0.13l3.66,5.13c0.43,0.61,0.19,1.85-0.57,2.78l-13.45,16.72l13.5,1.15c0.76,0.07,1.01,1.01,0.58,2.11
					l-3.62,9.36c-0.29,0.75-0.81,1.37-1.35,1.68c-0.27,0.15-0.53,0.23-0.78,0.21l-13.5-1.17l0.05,17.87c0,1-0.69,2.2-1.55,2.7
					l-7.31,4.22c-0.86,0.5-1.55,0.1-1.56-0.91l-0.05-17.87l-13.45,16.72c-0.24,0.3-0.51,0.54-0.78,0.69
					c-0.54,0.31-1.06,0.29-1.35-0.13l-3.67-5.15c-0.43-0.61-0.17-1.84,0.57-2.78l13.45-16.7l-13.5-1.17
					c-0.74-0.06-1.01-1.01-0.58-2.11l3.62-9.34c0.29-0.75,0.81-1.37,1.35-1.68c0.27-0.15,0.53-0.23,0.78-0.21l13.5,1.15l-0.05-17.87
					c0-0.99,0.69-2.18,1.55-2.68L772.31,1020.89z"/><path fill="#1fb6ff" d="M836.86,983.62c0.87-0.5,1.57-0.11,1.57,0.88l0.05,17.87l13.45-16.7c0.24-0.3,0.51-0.54,0.77-0.69
					c0.53-0.31,1.05-0.29,1.35,0.12l3.67,5.13c0.43,0.61,0.17,1.86-0.57,2.78l-13.45,16.72l13.5,1.15c0.74,0.08,1.01,1.01,0.58,2.11
					l-3.62,9.36c-0.3,0.76-0.82,1.38-1.35,1.68c-0.26,0.15-0.53,0.23-0.78,0.21l-13.5-1.17l0.05,17.87c0,1-0.69,2.2-1.56,2.7
					l-7.29,4.21c-0.86,0.5-1.55,0.1-1.56-0.91l-0.05-17.87l-13.45,16.72c-0.24,0.3-0.51,0.54-0.78,0.69
					c-0.54,0.31-1.06,0.29-1.35-0.13l-3.67-5.15c-0.43-0.61-0.19-1.83,0.57-2.78l13.45-16.7l-13.5-1.17
					c-0.76-0.05-1.01-1.01-0.58-2.11l3.62-9.34c0.29-0.75,0.81-1.37,1.35-1.68c0.27-0.15,0.53-0.23,0.78-0.21l13.5,1.15l-0.05-17.87
					c0-0.99,0.69-2.18,1.55-2.68L836.86,983.62z"/><path fill="#1fb6ff" d="M901.42,946.35c0.87-0.5,1.57-0.11,1.57,0.88l0.05,17.87l13.45-16.7c0.24-0.3,0.5-0.53,0.77-0.68
					c0.53-0.31,1.06-0.29,1.36,0.12l3.67,5.13c0.41,0.61,0.17,1.86-0.57,2.78l-13.45,16.72l13.5,1.15c0.74,0.08,0.99,1.02,0.58,2.11
					l-3.62,9.36c-0.3,0.76-0.82,1.38-1.36,1.69c-0.26,0.15-0.53,0.23-0.77,0.2l-13.5-1.17l0.05,17.87c0,1-0.69,2.2-1.56,2.7
					l-7.29,4.21c-0.86,0.5-1.55,0.1-1.56-0.91l-0.05-17.87l-13.45,16.72c-0.24,0.3-0.51,0.54-0.78,0.69
					c-0.54,0.31-1.06,0.29-1.35-0.13l-3.67-5.15c-0.43-0.61-0.19-1.83,0.57-2.78l13.45-16.7l-13.5-1.17
					c-0.76-0.05-1.01-1.01-0.58-2.11l3.62-9.34c0.29-0.75,0.81-1.37,1.35-1.68c0.27-0.15,0.53-0.23,0.78-0.21l13.5,1.15l-0.05-17.87
					c0-0.99,0.69-2.18,1.55-2.68L901.42,946.35z"/></g><g><path fill="#1fb6ff" d="M894.88,1077.68c15.28-8.82,27.68-1.76,27.73,15.75l0.19,65.64c0.05,17.56-12.27,38.9-27.55,47.72
				l-252.69,145.35c-15.23,8.79-27.63,1.73-27.68-15.83l-0.19-65.64c-0.05-17.5,12.27-38.84,27.5-47.63L894.88,1077.68z"/></g><g><polygon fill="#fff" points="658.76 1246.54 658.93 1306.79 684.07 1292.28 684.09 1299.57 651.36 1318.47 651.17 1250.93"/></g><g><path fill="#fff" d="M712.76,1214.23c16.04-9.26,26.49-1.13,26.54,18.88c0.07,23.32-12.21,42.68-27.2,51.34
				c-15.51,8.96-26.48,1.5-26.54-18.96C685.51,1244.06,697.05,1223.3,712.76,1214.23z M712.55,1277.12
				c12.04-6.95,18.75-23.56,18.71-38.9c-0.04-13.46-6.17-23.94-18.8-16.65c-12.57,7.26-18.82,24.2-18.77,39.02
				C693.73,1275.03,700.57,1284.03,712.55,1277.12"/></g><g><path fill="#fff" d="M777.44,1177.27c6.81-3.93,12.11-5.26,14.67-5.31l-1.81,8.13c-3.15,0.23-7.08,1.22-13.03,4.66
				c-14.27,8.24-23.6,23.87-23.55,40.8c0.05,17.15,9.11,22.01,22.79,14.12c4.98-2.87,8.38-5.59,10.08-7.63l-0.06-20.16l-11.91,6.88
				l-0.02-7l19.38-11.19l0.09,32.49c-3.4,3.39-10.14,9.54-18.06,14.12c-8.9,5.14-16.24,6.74-22.02,3.82
				c-5.06-2.73-8.22-9.94-8.25-20.47C745.73,1210.34,757.74,1188.65,777.44,1177.27z"/></g><g><polygon fill="#fff" points="813.05 1157.46 813.24 1225.01 805.65 1229.39 805.46 1161.85"/></g><g><path fill="#fff" d="M870.46,1124.32l0.19,67.55l-7.66,4.42l-18.75-23.53c-4.15-5.14-8.09-10.55-11.06-16.22l-0.26,0.3
				c0.48,8.24,0.64,16.28,0.67,27.49l0.08,28.88l-7.13,4.12l-0.19-67.55l8.31-4.8l18.95,23.26c4.34,5.4,7.77,10.58,10.6,15.88
				c-0.55-8.8-0.77-16.96-0.8-27.49l-0.08-28.21L870.46,1124.32z"/></g><g><path fill="#dbdee4" d="M2085.33,1461.93c-0.33,0-0.67-0.08-0.97-0.26l-245.01-141.5c-4.73-2.73-7.56-7.63-7.57-13.09
			c0-5.46,2.81-10.36,7.53-13.11l243.32-141.45c0.93-0.54,2.12-0.23,2.67,0.71c0.54,0.93,0.23,2.12-0.7,2.67l-243.32,141.45
			c-3.51,2.04-5.6,5.67-5.6,9.73c0.01,4.06,2.11,7.69,5.62,9.73l245.01,141.5c0.93,0.54,1.25,1.73,0.72,2.66
			C2086.65,1461.58,2086,1461.93,2085.33,1461.93z"/></g><g opacity=".1"><path d="M2235.04,1177.38c17.28,9.98,17.37,26.16,0.2,36.13l-102.14,58.97c-17.16,9.98-45.09,9.98-62.37,0l-448.14-258.8
				c-17.28-9.98-17.37-26.16-0.2-36.13l102.14-58.97c17.16-9.98,45.09-9.98,62.36,0L2235.04,1177.38z"/></g><g><path fill="#bec4cd" d="M2248.02,1111.18l-0.16,59.62c0,6.49-4.27,12.98-12.82,17.97l-102.11,58.99
						c-2.14,1.27-4.43,2.29-6.81,3.25c-14.01,5.38-32.06,5.62-46.46,0.79c-3.25-1.11-6.33-2.45-9.1-4.04l-448.1-258.75
						c-8.71-5.07-13.06-11.64-13.06-18.21l0.16-59.7c0,6.57,4.35,13.22,13.06,18.13l448.17,258.9c2.69,1.58,5.7,2.93,8.87,3.88
						c14.41,4.99,32.45,4.75,46.46-0.63c2.45-0.87,4.83-1.98,6.97-3.25l102.19-58.99
						C2243.75,1124.16,2248.02,1117.67,2248.02,1111.18z"/><path fill="#fff" d="M2235.04,1093.01c17.28,9.98,17.37,26.16,0.2,36.13l-102.14,58.97c-17.16,9.98-45.09,9.98-62.37,0
						l-448.14-258.8c-17.28-9.98-17.37-26.16-0.2-36.13l102.14-58.97c17.16-9.98,45.09-9.98,62.36,0L2235.04,1093.01z"/><path fill="#373b42" d="M2101.96,1197.5c-11.64,0-23.31-2.57-32.2-7.71L1621.63,931c-9.02-5.2-13.98-12.24-14-19.81
						c-0.01-7.53,4.89-14.52,13.78-19.7l102.15-58.97c17.67-10.28,46.53-10.27,64.31,0l448.13,258.8l0,0
						c9.02,5.2,13.98,12.24,14,19.81c0.01,7.53-4.89,14.52-13.78,19.7l-102.14,58.97C2125.25,1194.93,2113.61,1197.5,2101.96,1197.5
						z M1755.68,828.66c-10.93,0-21.85,2.41-30.15,7.23l-102.15,58.97c-7.64,4.44-11.85,10.24-11.84,16.31
						c0.01,6.13,4.29,11.97,12.05,16.45l448.13,258.8c16.71,9.65,43.81,9.65,60.41,0l102.14-58.97
						c7.64-4.44,11.85-10.24,11.84-16.31c-0.02-6.13-4.29-11.97-12.05-16.45l-448.13-258.8
						C1777.58,831.07,1766.62,828.66,1755.68,828.66z"/></g><g><path fill="#f0f2f5" d="M2126.13,1191.38V1251c-14.01,5.38-32.06,5.62-46.46,0.79v-59.78
			C2094.07,1197,2112.12,1196.77,2126.13,1191.38z"/></g><g><path fill="#373b42" d="M2101.82,1257.21c-7.82,0-15.66-1.18-22.78-3.57c-3.51-1.2-6.69-2.6-9.45-4.19l-448.1-258.75
				c-9.05-5.27-14.04-12.33-14.04-19.9l0.16-59.7c0-1.08,0.88-1.95,1.95-1.95l0,0c1.08,0,1.95,0.88,1.95,1.95
				c0,6.12,4.4,12.11,12.07,16.43l448.19,258.92c2.69,1.58,5.53,2.82,8.45,3.7c13.98,4.84,31.71,4.59,45.2-0.59
				c2.35-0.83,4.64-1.9,6.68-3.1l102.2-58.99c7.55-4.45,11.73-10.21,11.77-16.22v-0.08c0-1.08,0.88-1.95,1.95-1.95l0,0
				c1.08,0,1.95,0.87,1.95,1.95v0l0,0c0,0.03,0,0.06,0,0.08l-0.16,59.53c0,7.48-4.9,14.46-13.79,19.65l-102.12,58.99
				c-1.95,1.15-4.13,2.19-7.06,3.37C2119.23,1255.74,2110.54,1257.21,2101.82,1257.21z M1611.48,922.23l-0.13,48.57
				c0,6.11,4.29,11.98,12.1,16.52l448.09,258.75c2.54,1.46,5.5,2.76,8.76,3.88c13.99,4.69,31.71,4.39,45.13-0.77
				c2.71-1.09,4.73-2.04,6.52-3.1l102.13-58.99c7.64-4.46,11.85-10.25,11.85-16.29l0.13-48.4c-2.31,3.11-5.6,5.97-9.78,8.44
				l-102.2,58.99c-2.27,1.34-4.73,2.49-7.29,3.4c-14.48,5.56-32.79,5.81-47.75,0.64c-3.14-0.94-6.27-2.31-9.21-4.04l-448.16-258.9
				C1617.3,928.47,1613.87,925.51,1611.48,922.23z"/></g><g><path fill="#f0f2f5" d="M2169.01,675.29l-1.35,404.23c-0.04,11.35-7.46,22.66-22.35,31.28c-29.96,17.43-78.65,17.43-108.81,0.04
						l-276.73-159.85c-15.19-8.73-22.73-20.24-22.73-31.7l1.38-404.19c0,11.5,7.58,22.93,22.69,31.66l276.73,159.81
						c30.15,17.43,78.89,17.39,108.81,0C2161.55,697.91,2168.98,686.6,2169.01,675.29z"/><path fill="#dbdee4" d="M2090.95,1127.69c-20.39,0-40.81-4.49-56.39-13.47l-276.73-159.85c-15.91-9.15-24.68-21.61-24.68-35.08
						l1.38-404.2l7.8,0.01c0,10.51,7.37,20.55,20.75,28.28l276.73,159.81c29.02,16.77,76.07,16.76,104.91,0.01
						c13.12-7.63,20.36-17.55,20.4-27.92l7.8,0.02l-1.34,404.23c-0.05,13.3-8.67,25.6-24.29,34.64
						C2131.78,1123.18,2111.38,1127.69,2090.95,1127.69z M1742.26,536.02l-1.31,383.27c0,10.55,7.38,20.6,20.77,28.31l276.74,159.86
						c29.03,16.74,76.08,16.73,104.91-0.03c13.13-7.6,20.37-17.52,20.41-27.92l1.27-383.23c-4.03,5.05-9.54,9.67-16.42,13.66
						c-31,18.02-81.57,18.01-112.72,0.01l-276.73-159.81C1752.05,546.01,1746.36,541.24,1742.26,536.02z"/><g><path fill="#fff" d="M2146.32,643.54c30.14,17.41,30.3,45.61,0.35,63.02c-29.94,17.41-78.66,17.42-108.8,0.02l-276.76-159.83
						c-30.14-17.41-30.27-45.63-0.33-63.03c29.94-17.41,78.63-17.41,108.77,0L2146.32,643.54z"/><path fill="#373b42" d="M2092.32,721.52c-20.05,0-40.11-4.42-55.43-13.26l-276.76-159.83c-15.24-8.8-23.65-20.63-23.67-33.29
						c-0.02-12.59,8.27-24.36,23.33-33.12c30.44-17.68,80.11-17.69,110.72,0l276.77,159.83l0,0c15.25,8.81,23.67,20.64,23.68,33.31
						c0.02,12.58-8.27,24.33-23.32,33.09C2132.42,717.1,2112.38,721.52,2092.32,721.52z M1815.1,472.6
						c-19.34,0-38.66,4.26-53.33,12.8c-13.81,8.03-21.41,18.59-21.4,29.73c0.02,11.22,7.73,21.85,21.72,29.93l276.76,159.83
						c29.56,17.07,77.49,17.06,106.84-0.02c13.81-8.02,21.4-18.57,21.39-29.71c-0.02-11.22-7.73-21.85-21.73-29.94L1868.58,485.4
						C1853.81,476.87,1834.44,472.6,1815.1,472.6z"/></g></g><g><path fill="#373b42" d="M1794.41,536.02c0.5,0.42,1.09,0.75,1.67,1.09c17.66,10.13,46.12,10.21,63.69,0
				c0.59-0.34,1.09-0.67,1.59-1.09c15.4-9.8,15.32-24.86,0.08-34.66c-0.59-0.42-1.17-0.84-1.84-1.17
				c-17.66-10.21-46.2-10.3-63.78-0.08c-0.5,0.25-0.92,0.59-1.34,0.84C1778.85,510.82,1778.85,526.14,1794.41,536.02z"/><path fill="#373b42" d="M1828.01,546.63c-11.89,0-23.8-2.61-32.9-7.83c-0.65-0.37-1.29-0.75-1.85-1.2
				c-8.05-5.14-12.48-11.93-12.47-19.12c0.01-7.23,4.51-14.05,12.66-19.2l0.44-0.29c0.34-0.22,0.69-0.45,1.07-0.64
				c17.93-10.43,47.42-10.39,65.62,0.14c0.66,0.33,1.33,0.8,2,1.28c7.89,5.07,12.27,11.82,12.25,18.95
				c-0.02,7.12-4.43,13.84-12.43,18.93c-0.38,0.34-0.97,0.74-1.65,1.13C1851.76,544.02,1839.9,546.63,1828.01,546.63z
				 M1827.53,494.43c-11.16,0-22.27,2.46-30.71,7.36c-0.34,0.17-0.55,0.32-0.75,0.45l-0.59,0.38c-6.93,4.38-10.78,10.03-10.79,15.87
				c0,5.83,3.81,11.48,10.76,15.88c0.08,0.05,0.14,0.1,0.21,0.15c0.42,0.35,0.91,0.61,1.39,0.89c17.13,9.83,44.83,9.83,61.75,0.01
				c0.49-0.28,0.9-0.55,1.32-0.9c7.04-4.5,10.82-10.06,10.83-15.8c0.02-5.75-3.73-11.34-10.55-15.72c-0.59-0.42-1.1-0.78-1.67-1.07
				C1850.08,496.93,1838.78,494.43,1827.53,494.43z"/><path fill="#373b42" d="M2044.33,680.35c0.67,0.5,1.34,0.92,2.09,1.34c17.74,10.21,46.28,10.21,63.86,0c0.33-0.17,0.67-0.42,1-0.67
				c16.07-9.88,15.99-25.37,0.08-35.33c-0.5-0.34-0.92-0.67-1.42-0.92c-17.58-10.22-46.12-10.22-63.69,0
				c-0.67,0.34-1.26,0.75-1.84,1.17C2029.43,655.74,2029.43,670.47,2044.33,680.35z"/><path fill="#373b42" d="M2078.45,691.25c-11.92,0-23.88-2.62-33.01-7.87c-0.79-0.44-1.52-0.9-2.24-1.44
				c-7.75-5.16-12.01-11.85-11.99-18.86c0.02-7.01,4.33-13.67,12.13-18.77c0.59-0.43,1.26-0.9,2.03-1.28
				c17.99-10.47,47.45-10.46,65.55,0.06c0.33,0.16,0.72,0.43,1.13,0.72c8.67,5.45,13.23,12.35,13.2,19.65
				c-0.03,7.28-4.64,14.1-12.96,19.22c-0.28,0.22-0.72,0.54-1.16,0.75C2102.19,688.64,2090.34,691.25,2078.45,691.25z
				 M2078.06,639.04c-11.18,0-22.33,2.47-30.83,7.41c-0.69,0.34-1.18,0.71-1.68,1.07c-6.74,4.41-10.42,9.92-10.44,15.58
				c-0.02,5.66,3.63,11.21,10.29,15.63c0.04,0.02,0.07,0.05,0.11,0.07c0.59,0.45,1.18,0.82,1.85,1.19
				c17.18,9.88,44.96,9.89,61.94,0.02c0.35-0.18,0.58-0.37,0.81-0.54c7.29-4.48,11.23-10.14,11.25-16.02
				c0.02-5.91-3.9-11.63-11.03-16.1l-0.5-0.35c-0.25-0.18-0.49-0.35-0.75-0.48C2100.5,641.53,2089.27,639.04,2078.06,639.04z"/><g><path fill="#f0f2f5" d="M1794.41,536.02c0.5,0.42,1.09,0.75,1.67,1.09c17.66,10.13,46.12,10.21,63.69,0
				c0.59-0.34,1.09-0.67,1.59-1.09l0.08-34.66l0.33-127.08c0.08-25.53,7.37-44.29,19.92-51.49c12.81-7.2,32.89-4.02,55.24,8.87
				c58.59,33.91,108.05,119.38,107.8,186.77l-0.34,127.49l-0.08,34.41c0.67,0.5,1.34,0.92,2.09,1.34
				c17.74,10.21,46.28,10.21,63.86,0c0.33-0.17,0.67-0.42,1-0.67l0.08-35.33l0.34-127.08c0.25-91.42-61.77-198.99-141.28-244.95
				c-44.02-25.37-87.29-28.63-121.78-9.04c-34.57,19.67-53.65,58.6-53.82,109.5l-0.33,126.82L1794.41,536.02z"/><path fill="#373b42" d="M2078.45,691.25c-11.92,0-23.88-2.62-33.01-7.87c-0.81-0.45-1.55-0.92-2.29-1.48
				c-0.49-0.37-0.77-0.95-0.77-1.56l0.42-161.9c0.24-66.67-48.68-151.43-106.82-185.08c-21.67-12.49-41.1-15.72-53.32-8.86
				c-11.94,6.86-18.84,25.01-18.92,49.8l-0.42,161.73c0,0.58-0.26,1.12-0.7,1.49c-0.59,0.49-1.18,0.89-1.86,1.28
				c-17.99,10.45-47.44,10.44-65.64,0c-0.69-0.39-1.37-0.79-1.96-1.28c-0.44-0.37-0.7-0.92-0.7-1.5l0.42-161.9
				c0.17-51.68,19.63-91.17,54.8-111.19c35.07-19.93,79.01-16.71,123.71,9.05c80.02,46.26,142.51,154.6,142.26,246.65l-0.42,162.4
				c0,0.61-0.29,1.19-0.78,1.56c-0.43,0.32-0.88,0.64-1.31,0.85C2102.19,688.64,2090.34,691.25,2078.45,691.25z M2046.28,679.34
				c0.35,0.22,0.7,0.43,1.08,0.64c17.18,9.88,44.96,9.89,61.94,0.02c0.02,0,0.03-0.01,0.04-0.02l0.42-161.37
				c0.25-90.79-61.38-197.64-140.31-243.27c-43.47-25.04-86.03-28.24-119.84-9.03c-33.9,19.3-52.66,57.59-52.83,107.81l-0.42,160.89
				c0.23,0.14,0.46,0.27,0.69,0.4c17.13,9.83,44.83,9.83,61.75,0.01c0.22-0.13,0.43-0.25,0.62-0.38l0.42-160.76
				c0.08-26.22,7.71-45.6,20.9-53.18c13.45-7.57,34.3-4.32,57.19,8.87c59.21,34.27,109.02,120.58,108.77,188.47L2046.28,679.34z"/></g></g><g><path fill="#dbdee4" d="M2037.86,706.56c30.15,17.43,78.89,17.39,108.81,0c14.88-8.66,22.31-19.97,22.35-31.28l-1.35,404.23
				c-0.04,11.35-7.46,22.66-22.35,31.28c-29.96,17.43-78.65,17.43-108.81,0.04"/><path fill="#dbdee4" d="M2090.95,1127.69c-20.39,0-40.81-4.49-56.39-13.47l3.9-6.75c29.03,16.74,76.08,16.73,104.91-0.03
				c13.13-7.6,20.37-17.52,20.41-27.92l1.27-383.23c-4.03,5.05-9.54,9.67-16.42,13.66c-31,18.02-81.57,18.01-112.72,0.01l3.9-6.75
				c29.02,16.77,76.07,16.76,104.91,0.01c13.12-7.63,20.36-17.55,20.4-27.92l7.8,0.02l-1.34,404.23
				c-0.05,13.3-8.67,25.6-24.29,34.64C2131.78,1123.18,2111.38,1127.69,2090.95,1127.69z"/></g><g><path fill="#373b42" d="M2090.95,1125.77c-20.04,0-40.11-4.41-55.42-13.24l-276.73-159.86c-15.28-8.79-23.7-20.64-23.7-33.39
				l1.38-404.2c0-1.07,0.88-1.94,1.95-1.94l0,0c1.08,0,1.95,0.88,1.95,1.95c0,11.24,7.71,21.88,21.72,29.97l276.73,159.81
				c29.54,17.07,77.48,17.08,106.86,0c13.74-7.99,21.34-18.5,21.37-29.6c0-1.07,0.88-1.94,1.95-1.94h0.01
				c1.07,0,1.94,0.88,1.94,1.96l-1.34,404.23c-0.05,12.57-8.32,24.28-23.32,32.96C2131.07,1121.34,2111.03,1125.77,2090.95,1125.77z
				 M1740.33,529.61L1739,919.29c0,11.28,7.72,21.94,21.75,30l276.73,159.86c29.56,17.05,77.49,17.03,106.86-0.04
				c13.75-7.96,21.34-18.47,21.38-29.6l1.29-389.64c-3.84,6.89-10.4,13.17-19.36,18.38c-30.46,17.7-80.14,17.7-110.77,0
				l-276.73-159.81C1750.92,543.11,1744.2,536.67,1740.33,529.61z"/></g><g><path fill="#373b42" d="M1903.03,749.22c22.07,12.74,39.99,43.8,39.92,69.28c-0.05,17.88-8.99,28.33-22.09,28.32l18.79,103.41
			c1.49,8.36-3.44,12.73-10.2,8.83l-54.05-31.21c-6.76-3.9-11.65-13.94-10.12-20.56l19.32-81.4c-13.05-15.09-21.9-35.82-21.85-53.69
			C1862.83,746.7,1880.87,736.42,1903.03,749.22z"/><path fill="#373b42" d="M1934.17,962.44c-1.78,0-3.72-0.57-5.68-1.7l-54.06-31.22c-7.52-4.34-12.78-15.15-11.04-22.68l19.09-80.45
			c-13.45-15.9-21.73-36.58-21.68-54.22c0.04-13.01,4.58-22.76,12.77-27.48c8.22-4.74,19.05-3.74,30.44,2.84
			c22.62,13.06,40.97,44.9,40.9,70.97c-0.05,17.4-8.5,28.97-21.72,30.16l18.4,101.21c0.91,5.1-0.27,9.21-3.23,11.29
			C1937.13,962.01,1935.71,962.43,1934.17,962.44z M1885.03,745.65c-3.49,0-6.7,0.8-9.52,2.43c-6.94,3.99-10.77,12.56-10.81,24.12
			c-0.05,17.01,8.14,37.1,21.38,52.41c0.4,0.48,0.56,1.12,0.42,1.72l-19.32,81.4c-1.34,5.84,3.21,14.97,9.2,18.42l54.06,31.22
			c2.3,1.33,4.32,1.56,5.67,0.61c1.64-1.15,2.25-3.92,1.63-7.4l-18.79-103.4c-0.1-0.57,0.05-1.16,0.43-1.6
			c0.37-0.45,0.91-0.7,1.49-0.7l0,0c0.01,0,0.01,0,0.02,0c12.37,0,20.08-10.1,20.13-26.38c0.07-24.82-17.41-55.14-38.95-67.58
			C1896.01,747.41,1890.21,745.65,1885.03,745.65z"/></g><g><path d="M2171.5,1969.48c-72.24,41.92-179.53,51.39-267.74,28.25l-423.45,246.07c-4.66,2.74-11.09,4.29-17.75,4.29H1366
					c-3.33,0-6.28-0.74-8.43-2c-2.14-1.26-3.92-3.1-3.92-5.03l0.07-55.01c0-3.77,5.32-6.8,11.83-6.8h52.72
					c6.51,0,11.76-3.1,11.76-6.88l-0.15-34.53c0-1.85,1.26-3.62,3.4-4.88l9.98-5.77c2.29-1.33,5.32-2,8.36-2h59.67
					c6.51,0,11.76-3.11,11.76-6.88l-0.15-34.53c0-1.85,1.26-3.62,3.4-4.88l9.98-5.77c2.29-1.33,5.32-2.07,8.43-2.07h59.6
					c6.51,0,11.76-3.03,11.83-6.8l-0.22-34.53c0-1.85,1.26-3.62,3.4-4.88l165.18-95.97c-40.3-51.09-24.33-113.2,47.91-155.2
					c93.02-54.05,244.3-54.12,338.05,0C2264.07,1827.73,2264.52,1915.42,2171.5,1969.48z" opacity=".1"/><path fill="#373b42" d="M2136.67,1742.88l-0.17,49.87c0.03-9.8-6.44-19.62-19.39-27.09c-25.79-14.89-67.39-14.89-92.95-0.03
									c-12.7,7.38-19.05,17.03-19.08,26.71l0.17-49.87c0.03-9.67,6.39-19.33,19.08-26.71c25.57-14.86,67.17-14.86,92.95,0.03
									C2130.23,1723.26,2136.7,1733.08,2136.67,1742.88z"/><path fill="#373b42" d="M2136.5,1794.7C2136.5,1794.7,2136.5,1794.7,2136.5,1794.7c-1.08,0-1.95-0.88-1.95-1.95v0l0,0
									c0.02-9.51-6.52-18.53-18.42-25.4c-25.18-14.53-66.01-14.56-90.99-0.03c-11.64,6.76-18.07,15.63-18.11,24.98v0.05
									c-0.01,1.07-0.88,1.94-1.95,1.94c0,0,0,0-0.01,0c-1.07,0-1.94-0.88-1.94-1.95v0v-0.01c0-0.01,0-0.02,0-0.03l0.18-49.83
									c0.02-10.81,7.14-20.89,20.04-28.39c26.08-15.15,68.65-15.13,94.92,0.03c13.17,7.6,20.39,17.82,20.36,28.79l0,0l-0.17,49.88
									C2138.45,1793.84,2137.57,1794.7,2136.5,1794.7z M2070.52,1752.59c17.19,0,34.42,3.79,47.56,11.38
									c7.53,4.34,13.11,9.55,16.52,15.26l0.12-36.36c0.03-9.51-6.51-18.53-18.41-25.4c-25.18-14.54-66.02-14.56-91-0.03
									c-11.66,6.77-18.08,15.66-18.11,25.03l-0.13,36.33c3.37-5.55,8.81-10.62,16.1-14.86
									C2036.2,1756.38,2053.34,1752.59,2070.52,1752.59z M2136.66,1742.88h0.05H2136.66z"/><path fill="#373b42" d="M1824.86,1866.62c-13.61-9.53-24.72-19.85-33.27-30.68c-14.5-18.36-21.72-38.16-21.66-57.94
									l-0.17,61.48c-0.06,19.78,7.17,39.58,21.66,57.94c8.59,10.88,19.75,21.25,33.44,30.81V1866.62z"/><path fill="#373b42" d="M1824.86,1930.18c-0.4,0-0.78-0.12-1.12-0.35c-13.65-9.53-25.04-20.03-33.85-31.2
									c-14.5-18.36-22.14-38.82-22.08-59.15l0.18-61.48c0-1.08,0.88-1.95,1.95-1.95c0,0,0,0,0.01,0c1.07,0,1.94,0.88,1.94,1.95
									l0,0c-0.05,19.45,7.29,39.06,21.24,56.73c8.54,10.81,19.59,21,32.86,30.29c0.52,0.36,0.83,0.96,0.83,1.6v61.61
									c0,0.73-0.4,1.39-1.05,1.73C1825.48,1930.11,1825.17,1930.18,1824.86,1930.18z M1771.81,1803.15l-0.11,36.33
									c-0.05,19.45,7.29,39.06,21.24,56.73c7.92,10.02,17.99,19.51,29.96,28.23v-56.81c-13.2-9.35-24.25-19.6-32.85-30.49
									C1781.57,1826.39,1775.43,1814.91,1771.81,1803.15z"/><g><path fill="#fff" d="M2178.55,1876.54c-72.22,41.97-179.5,51.39-267.69,28.25c-25.47-6.68-49.34-16.08-70.31-28.19
									c-0.06-0.04-0.12-0.08-0.19-0.11v61.59c0.01,0,0.01,0.01,0.01,0.01c20.98,12.11,44.85,21.51,70.31,28.19
									c88.19,23.14,195.47,13.72,267.69-28.25c46.23-26.86,69.37-62.02,69.47-97.23l0.17-61.48
									C2247.92,1814.52,2224.78,1849.68,2178.55,1876.54z"/><path fill="#373b42" d="M2008.88,1980.46c-33.45,0-67.12-4.02-98.68-12.3c-26.31-6.9-50.13-16.45-70.8-28.39
									c-0.6-0.35-0.98-1-0.98-1.69v-61.59c0-0.71,0.39-1.36,1.01-1.71c0.62-0.34,1.37-0.33,1.98,0.05
									c20.48,11.84,43.98,21.25,69.96,28.07c89.81,23.56,196.78,12.29,266.21-28.05c44.07-25.61,68.4-59.55,68.51-95.54l0,0
									c0-1.08,0.88-1.95,1.95-1.95c0,0,0,0,0.01,0c1.07,0,1.94,0.88,1.94,1.95l-0.18,61.48c-0.11,37.44-25.12,72.57-70.44,98.91
									C2133.53,1966.34,2071.59,1980.46,2008.88,1980.46z M1842.31,1936.96c20.22,11.53,43.36,20.74,68.87,27.44
									c89.81,23.56,196.78,12.29,266.21-28.05c44.08-25.61,68.41-59.55,68.51-95.54l0.1-36.08
									c-8.71,27.74-31.58,53.23-66.47,73.51l0,0c-70.27,40.82-178.42,52.27-269.17,28.45c-25.16-6.6-48.04-15.62-68.06-26.83
									V1936.96z M2178.55,1876.55h0.05H2178.55z"/></g><g><path fill="#fff" d="M1910.84,1904.76l-0.17,61.51l-423.45,246.12c-4.69,2.68-11.06,4.27-17.77,4.27h-96.54
									c-3.35,0-6.29-0.84-8.46-2.01c-2.18-1.26-3.44-3.02-3.44-4.86l-0.34-55.14v-6.37c0.08,1.42,1.09,2.77,2.51,3.85
									c0.42,0.42,0.92,0.67,1.42,1.01c2.18,1.26,5.11,2.01,8.46,2.01h96.54c6.7,0,13.07-1.59,17.77-4.27L1910.84,1904.76z"/><path fill="#373b42" d="M1469.46,2218.62h-96.54c-3.38,0-6.72-0.8-9.4-2.25c-2.85-1.64-4.45-4.03-4.45-6.58l-0.34-61.51
									c0-1.05,0.84-1.92,1.89-1.95c0.02,0,0.05,0,0.06,0c1.03,0,1.89,0.8,1.95,1.84c0.04,0.72,0.68,1.6,1.75,2.42
									c0.34,0.31,0.57,0.46,0.84,0.63l0.49,0.31c1.84,1.06,4.5,1.68,7.38,1.68h96.54c6.21,0,12.33-1.47,16.8-4.02l423.43-246.12
									c0.61-0.35,1.35-0.35,1.96,0c0.6,0.35,0.97,0.99,0.97,1.69l-0.16,61.51c0,0.69-0.37,1.33-0.97,1.68l-423.45,246.13
									C1483.08,2217.01,1476.43,2218.62,1469.46,2218.62z M1362.63,2154.19v0.47l0.34,55.13c0,1.13,0.9,2.28,2.46,3.19
									c2.07,1.12,4.75,1.75,7.49,1.75h96.54c6.21,0,12.34-1.46,16.8-4.02l422.47-245.55l0.15-56.99l-420.51,244.42
									c-5.13,2.93-11.78,4.54-18.75,4.54h-96.54c-3.6,0-6.87-0.78-9.44-2.27l-0.49-0.31
									C1362.99,2154.43,1362.82,2154.32,1362.63,2154.19z"/></g></g><g><path fill="#1fb6ff" d="M2177.52,1680.76c-7.35-4.22-14.97-8.17-22.99-11.7c-94.02-42.11-229.33-38.16-315.12,11.7
				c-72.18,41.97-88.1,104.09-47.83,155.18l-165.18,95.99c-2.18,1.22-3.4,2.99-3.4,4.83l0.14,34.56c0,3.74-5.24,6.8-11.77,6.8
				h-59.59c-3.13,0-6.19,0.75-8.37,2.04l-10,5.78c-2.18,1.29-3.4,3.06-3.47,4.9l0.2,34.49c0,3.81-5.31,6.87-11.77,6.87h-59.66
				c-3.06,0-6.12,0.68-8.37,2.04l-10,5.78c-2.18,1.29-3.4,2.99-3.4,4.83l0.2,34.56c-0.07,3.81-5.31,6.87-11.84,6.87h-52.66
				c-6.53,0-11.84,3.06-11.84,6.8l-0.14,54.97c0,1.9,1.84,3.81,3.95,5.03c0.75,0.48,1.63,0.82,2.59,1.16
				c1.7,0.54,3.74,0.89,5.85,0.89h96.54c6.73,0,13.13-1.56,17.76-4.29l423.49-246.07c88.24,23.13,195.45,13.67,267.7-28.3
				C2271.54,1822.47,2271.13,1734.85,2177.52,1680.76z M2117.59,1769.54c-25.58,14.9-67.15,14.9-92.93,0
				c-25.78-14.83-25.92-38.98-0.34-53.81c25.58-14.83,67.15-14.83,92.93,0C2143.03,1730.63,2143.17,1754.71,2117.59,1769.54z"/><path fill="#373b42" d="M1469.6,2157.09h-96.54c-2.23,0-4.46-0.34-6.45-0.98c-1.04-0.37-2.08-0.76-3.03-1.36
				c-3.02-1.75-4.85-4.26-4.85-6.68l0.14-54.97c0-4.9,6.05-8.75,13.78-8.75h52.66c5.77,0,9.85-2.61,9.88-4.96l-0.21-34.51
				c0-2.54,1.55-4.85,4.36-6.52l10.02-5.79c2.44-1.48,5.76-2.31,9.34-2.31h59.67c5.79,0,9.82-2.59,9.82-4.92l-0.2-34.48
				c0.08-2.6,1.7-4.97,4.42-6.58l10.03-5.79c2.44-1.46,5.86-2.3,9.34-2.3h59.6c5.79,0,9.82-2.56,9.82-4.85l-0.14-34.55
				c0-2.59,1.6-4.97,4.39-6.54l163.24-94.86c-17.31-22.78-23.95-47.91-19.21-72.78c6.08-31.94,29.93-60.82,68.96-83.51
				c85.16-49.5,221.39-54.58,316.9-11.79c7.63,3.36,15.21,7.22,23.16,11.79c0.01,0,0.01,0,0.01,0
				c46.04,26.6,71.42,62.07,71.46,99.88c0.05,37.57-24.97,72.8-70.43,99.21c-70.08,40.72-177.84,52.22-268.4,28.71l-422.79,245.66
				C1483.35,2155.47,1476.69,2157.09,1469.6,2157.09z M1372.65,2088.24c-5.66,0-9.88,2.56-9.88,4.85l-0.14,54.97
				c0,0.8,1.02,2.21,2.98,3.34c0.67,0.42,1.48,0.73,2.26,1.01c1.53,0.49,3.39,0.77,5.19,0.77h96.54c6.31,0,12.43-1.47,16.77-4.02
				l423.5-246.07c0.45-0.26,0.99-0.33,1.48-0.2c89.8,23.55,196.78,12.25,266.22-28.11c44.22-25.68,68.55-59.72,68.5-95.84
				c-0.04-36.36-24.72-70.64-69.51-96.51c-7.84-4.5-15.3-8.29-22.81-11.6c-94.47-42.32-229.18-37.33-313.35,11.6
				c-38.03,22.11-61.22,50.07-67.09,80.87c-4.64,24.38,2.21,49.08,19.81,71.41c0.35,0.45,0.49,1.02,0.38,1.57
				c-0.1,0.56-0.44,1.04-0.93,1.32l-165.18,95.99c-1.55,0.87-2.43,2.01-2.43,3.14l0.14,34.55c0,4.92-6.03,8.76-13.72,8.76h-59.6
				c-2.76,0-5.51,0.66-7.36,1.77l-10.03,5.79c-1.54,0.91-2.45,2.11-2.49,3.27l0.2,34.42c0,4.96-6.02,8.83-13.71,8.83h-59.67
				c-2.83,0-5.51,0.64-7.36,1.76l-10.04,5.8c-0.89,0.53-2.43,1.67-2.43,3.14l0.21,34.55c-0.09,4.97-6.14,8.83-13.78,8.83H1372.65z
				 M2071.2,1782.61c-17.18,0-34.39-3.79-47.51-11.38c-13.14-7.56-20.39-17.75-20.41-28.69c-0.02-10.86,7.1-20.98,20.06-28.49
				c26.04-15.11,68.61-15.11,94.88,0c13.15,7.6,20.4,17.81,20.41,28.74c0.01,10.84-7.11,20.94-20.06,28.45l0,0
				C2105.54,1778.82,2088.38,1782.61,2071.2,1782.61z M2070.71,1706.55c-16.47,0-32.92,3.62-45.41,10.87
				c-11.7,6.78-18.13,15.7-18.11,25.12c0.02,9.49,6.57,18.48,18.46,25.32c25.19,14.56,66.01,14.55,90.97,0.01c0,0,0,0,0.01,0
				c11.69-6.78,18.12-15.69,18.12-25.07c-0.01-9.48-6.56-18.49-18.46-25.36C2103.68,1710.17,2087.18,1706.55,2070.71,1706.55z"/></g><g><path fill="#fff" d="M2190.72,1721.47c-9.25-9.93-21.23-19.25-35.72-27.62c-81.02-46.8-212.53-46.87-293.01-0.07
				c-80.55,46.81-80.07,122.93,0.95,169.74c20.07,11.63,43.27,20.34,68.1,26.19c75.04,17.76,164.36,8.98,224.91-26.19
				C2222.08,1825.08,2233.58,1766.91,2190.72,1721.47z M2140.51,1854.61c-37.82,21.97-88.24,32.38-138.03,31.23
				c-45.1-0.95-89.73-11.29-124.16-31.23c-72.52-41.91-72.93-110.01-0.88-151.91c72.04-41.84,189.67-41.84,262.19,0.07
				c29.32,16.94,46.81,38.1,52.52,60.14C2200.65,1795.35,2183.44,1829.64,2140.51,1854.61z"/></g><g><polygon fill="#fff" points="1451.94 2129.71 1468.5 2139.33 1822.21 1935.12 1805.64 1925.5"/></g><g><path fill="#fff" d="M260.88,2130.5c-11.86,6.85-11.93,17.97-0.14,24.82l150.78,87.62c11.79,6.85,30.98,6.85,42.85,0
				l151.77-87.62c11.86-6.85,11.93-17.97,0.14-24.82l-150.78-87.62c-11.79-6.85-30.98-6.85-42.85,0L260.88,2130.5z"/><path fill="#dbdee4" d="M432.92,2249.99c-8.12,0-16.22-1.79-22.38-5.36l-150.78-87.62c-6.3-3.67-9.77-8.65-9.76-14.05
				c0.01-5.43,3.53-10.45,9.91-14.14l151.77-87.62c12.38-7.15,32.48-7.15,44.8,0l150.78,87.62c6.3,3.67,9.78,8.66,9.77,14.05
				c-0.01,5.43-3.53,10.45-9.92,14.14l-151.76,87.62C449.15,2248.21,441.03,2249.99,432.92,2249.99z M434.1,2039.67
				c-7.41,0-14.82,1.63-20.48,4.9l-151.77,87.62c-5.13,2.97-7.96,6.79-7.96,10.77c-0.01,3.95,2.77,7.74,7.83,10.67l150.78,87.62
				c11.22,6.53,29.57,6.53,40.89,0l151.76-87.62c5.13-2.97,7.96-6.79,7.97-10.77c0-3.95-2.78-7.74-7.84-10.68l-150.78-87.62
				C448.89,2041.3,441.5,2039.67,434.1,2039.67z M260.88,2130.5h0.05H260.88z"/></g><g><path fill="#fff" d="M494.28,2107.57c33.79,19.51,33.96,51.12,0.34,70.66c-33.56,19.51-88.14,19.51-121.92,0
				c-33.73-19.47-33.91-51.09-0.34-70.59C405.97,2088.09,460.55,2088.09,494.28,2107.57z"/><path fill="#373b42" d="M433.74,2194.75c-22.43,0-44.89-4.95-62.02-14.84c-17-9.81-26.36-22.98-26.38-37.08
				c-0.02-14.02,9.23-27.12,26.03-36.89c34.08-19.8,89.65-19.82,123.88-0.06l0,0c17.02,9.82,26.4,23,26.42,37.1
				c0.02,14.03-9.24,27.14-26.07,36.93C478.58,2189.8,456.17,2194.75,433.74,2194.75z M433.33,2094.92c-21.75,0-43.48,4.8-60,14.4
				c-15.56,9.04-24.12,20.94-24.1,33.51c0.02,12.65,8.7,24.62,24.44,33.71c33.18,19.16,87.01,19.16,119.97,0
				c15.59-9.05,24.15-20.97,24.14-33.55c-0.02-12.66-8.71-24.63-24.47-33.74l0,0C476.74,2099.7,455.03,2094.92,433.33,2094.92z"/></g><g><path fill="#fff" d="M377.65,1964.57l0.66,172.52c0.02,8.18,5.41,16.36,16.17,22.61c21.62,12.56,56.77,12.56,78.53,0
						c10.93-6.31,16.39-14.6,16.36-22.87l-0.66-172.52c0.02,8.28-5.44,16.56-16.36,22.87c-21.76,12.56-56.91,12.56-78.53,0
						C383.06,1980.93,377.67,1972.75,377.65,1964.57z"/><path fill="#dbdee4" d="M393.82,1987.18c10.74,6.24,24.82,9.37,38.94,9.41v172.49c-13.9-0.13-27.71-3.23-38.28-9.37
						c-10.76-6.26-16.15-14.43-16.17-22.61l-0.66-172.52C377.67,1972.75,383.06,1980.92,393.82,1987.18z"/><path fill="#373b42" d="M433.69,2171.03c-14.57,0-29.13-3.21-40.2-9.64c-11.02-6.41-17.11-15.03-17.13-24.29l-0.66-172.52l0,0
						c-0.01-1.08,0.87-1.95,1.94-1.96h0.01c1.07,0,1.94,0.87,1.95,1.94c0.03,7.82,5.43,15.26,15.21,20.94
						c21.04,12.23,55.4,12.22,76.57,0c9.94-5.74,15.41-13.26,15.39-21.18v0c0,0,0,0,0,0c0-1.07,0.87-1.95,1.94-1.95h0.01
						c1.07,0,1.94,0.87,1.95,1.94l0.65,172.52c0.02,9.37-6.13,18.1-17.34,24.57C462.84,2167.81,448.25,2171.03,433.69,2171.03z
						 M379.64,1977.05l0.62,160.03c0.02,7.82,5.42,15.25,15.2,20.93c21.03,12.23,55.39,12.23,76.57,0
						c9.94-5.75,15.41-13.26,15.39-21.18l-0.61-160.05c-2.93,4.51-7.49,8.62-13.49,12.09c-22.27,12.85-58.36,12.85-80.49,0
						C387,1985.47,382.55,1981.46,379.64,1977.05z"/><path fill="#373b42" d="M433.02,1998.5c-14.57,0-29.13-3.21-40.19-9.64c-11.06-6.43-17.16-15.09-17.14-24.39
						c0.02-9.34,6.18-18.04,17.37-24.5l0,0c22.22-12.84,58.33-12.82,80.49,0.04c11.05,6.42,17.13,15.07,17.11,24.36
						c-0.02,9.34-6.17,18.04-17.34,24.48C462.19,1995.29,447.6,1998.5,433.02,1998.5z M395.01,1943.36
						c-9.93,5.73-15.4,13.24-15.42,21.13c-0.01,7.84,5.39,15.3,15.21,21c21.04,12.23,55.4,12.22,76.57,0
						c9.91-5.73,15.38-13.22,15.39-21.11c0.01-7.84-5.38-15.29-15.18-20.98C450.53,1931.16,416.17,1931.15,395.01,1943.36
						L395.01,1943.36z"/></g><g><path fill="#fff" d="M396.36,1845.18l0.44,114.27c0.02,5.44,3.6,10.88,10.75,15.04c14.38,8.35,37.75,8.35,52.22,0
						c7.27-4.2,10.9-9.71,10.88-15.21l-0.44-114.27c0.02,5.5-3.62,11.02-10.88,15.21c-14.47,8.35-37.85,8.35-52.22,0
						C399.96,1856.06,396.37,1850.62,396.36,1845.18z"/><path fill="#dbdee4" d="M407.11,1860.22c7.08,4.11,16.34,6.18,25.64,6.24v114.25c-9.16-0.13-18.24-2.17-25.21-6.22
						c-7.16-4.16-10.74-9.6-10.75-15.04l-0.44-114.27C396.37,1850.62,399.96,1856.06,407.11,1860.22z"/><path fill="#373b42" d="M433.63,1982.67c-9.82,0-19.62-2.16-27.06-6.49c-7.54-4.38-11.7-10.32-11.72-16.72l-0.43-114.27
						c0,0,0,0,0,0c0-1.07,0.87-1.95,1.94-1.95h0.01c1.07,0,1.94,0.87,1.95,1.94v0.03c0.02,4.95,3.5,9.69,9.78,13.33
						c13.82,8.04,36.37,8.03,50.26,0c6.4-3.69,9.92-8.49,9.91-13.51v0c0,0,0,0,0,0c0-1.07,0.87-1.95,1.94-1.95h0.01
						c1.07,0,1.94,0.87,1.95,1.94l0.44,114.27c0.02,6.48-4.2,12.48-11.86,16.9C453.25,1980.5,443.43,1982.67,433.63,1982.67z
						 M398.35,1855.48l0.4,103.96c0.02,4.96,3.49,9.7,9.78,13.36c13.82,8.04,36.37,8.03,50.26,0c6.4-3.7,9.93-8.5,9.91-13.52
						l-0.4-103.98c-1.96,2.44-4.65,4.68-8,6.6c-14.99,8.66-39.29,8.65-54.18,0C402.89,1860.02,400.28,1857.85,398.35,1855.48z"/><path fill="#1fb6ff" d="M407.26,1829.95c-14.47,8.35-14.55,21.89-0.15,30.26c14.38,8.35,37.75,8.35,52.22,0
						c14.45-8.34,14.52-21.88,0.15-30.24C445.08,1821.61,421.7,1821.61,407.26,1829.95z"/><path fill="#373b42" d="M433.19,1868.39c-9.82,0-19.62-2.16-27.06-6.49c-7.57-4.4-11.73-10.36-11.72-16.78
						c0.01-6.45,4.23-12.44,11.87-16.85l0,0c14.98-8.64,39.28-8.63,54.18,0.03c7.55,4.39,11.71,10.35,11.7,16.77
						c-0.01,6.45-4.22,12.43-11.86,16.84C452.82,1866.23,443,1868.39,433.19,1868.39z M433.36,1825.63c-9.09,0-18.19,2-25.13,6.01
						l0,0c-6.39,3.69-9.91,8.48-9.92,13.49c-0.01,4.97,3.46,9.73,9.78,13.4c13.82,8.04,36.37,8.03,50.26,0
						c6.38-3.69,9.9-8.47,9.91-13.47c0.01-4.97-3.46-9.72-9.77-13.39C451.58,1827.64,442.47,1825.63,433.36,1825.63z
						 M407.26,1829.96h0.05H407.26z"/><g><linearGradient id="a" x1="440.085" x2="440.085" y1="1869.776" y2="1731.012" gradientTransform="translate(-6.808)" gradientUnits="userSpaceOnUse"><stop offset="0" stop-color="#1fb6ff" stop-opacity=".9"/><stop offset="1" stop-color="#fff" stop-opacity="0"/></linearGradient><path fill="url(#a)" d="M468.05,1724.58v120.19c-0.18,5.02-3.58,9.95-10.13,13.8c-13.71,7.89-35.75,7.89-49.37,0
					c-6.54-3.85-9.86-8.78-10.04-13.8v-120.19H468.05z"/></g></g><g><path fill="#fff" d="M1257.83,708.4c-13.34,7.7-13.41,20.2-0.16,27.91l169.54,98.53c13.25,7.7,34.84,7.7,48.18,0l170.65-98.53
				c13.34-7.7,13.41-20.2,0.16-27.91l-169.54-98.53c-13.25-7.7-34.84-7.7-48.18,0L1257.83,708.4z"/><path fill="#dbdee4" d="M1451.28,842.53c-9.08,0-18.15-2-25.04-6L1256.69,738c-7.01-4.08-10.87-9.62-10.87-15.59
				c0.02-6.02,3.93-11.59,11.03-15.69l0,0l170.66-98.53c13.86-8,36.35-8,50.13,0l169.54,98.53c7.01,4.08,10.87,9.62,10.87,15.59
				c-0.01,6.02-3.92,11.59-11.03,15.69l-170.66,98.52C1469.44,840.53,1460.35,842.53,1451.28,842.53z M1258.8,710.09
				c-5.85,3.38-9.07,7.75-9.08,12.32c0,4.53,3.17,8.87,8.93,12.22l169.54,98.52c12.7,7.39,33.44,7.38,46.22,0l170.66-98.52
				c5.85-3.38,9.07-7.75,9.08-12.32c0.01-4.53-3.17-8.87-8.93-12.22l-169.54-98.53c-12.71-7.39-33.44-7.38-46.22,0L1258.8,710.09z"/></g><g><path fill="#fff" d="M1520.27,682.62c37.99,21.93,38.19,57.48,0.38,79.45c-37.74,21.93-99.11,21.93-137.1,0
				c-37.93-21.9-38.13-57.44-0.38-79.38C1420.98,660.72,1482.35,660.72,1520.27,682.62z"/><path fill="#373b42" d="M1452.2,780.4c-25.17,0-50.39-5.55-69.61-16.65c-19.03-10.98-29.52-25.71-29.54-41.48
				c-0.02-15.68,10.33-30.33,29.16-41.27c38.24-22.23,100.63-22.26,139.05-0.08l0,0c19.06,11,29.57,25.74,29.59,41.51
				c0.02,15.68-10.35,30.35-29.19,41.31C1502.53,774.85,1477.38,780.4,1452.2,780.4z M1451.75,668.15
				c-24.5,0-48.98,5.41-67.59,16.23c-17.57,10.21-27.24,23.67-27.22,37.89c0.02,14.32,9.82,27.85,27.6,38.11
				c37.39,21.58,98.01,21.59,135.14,0c17.6-10.23,27.28-23.7,27.26-37.93c-0.02-14.32-9.84-27.87-27.64-38.15
				C1500.65,673.53,1476.18,668.15,1451.75,668.15z"/></g><g><path fill="#fff" d="M1389.13,521.82l0.74,193.99c0.03,9.2,6.08,18.39,18.18,25.43c24.31,14.13,63.83,14.13,88.3,0
						c12.29-7.09,18.43-16.41,18.4-25.72l-0.74-193.99c0.03,9.31-6.11,18.63-18.4,25.72c-24.47,14.13-63.99,14.13-88.3,0
						C1395.21,540.21,1389.16,531.02,1389.13,521.82z"/><path fill="#dbdee4" d="M1407.31,547.25c12.08,7.02,27.91,10.53,43.78,10.58v193.95c-15.63-0.15-31.16-3.63-43.04-10.54
						c-12.1-7.03-18.16-16.23-18.18-25.43l-0.74-194C1389.16,531.02,1395.21,540.21,1407.31,547.25z"/><path fill="#373b42" d="M1452.14,753.73c-16.35,0-32.67-3.6-45.08-10.81c-12.31-7.16-19.12-16.79-19.15-27.1l-0.73-193.95
						c0-0.01,0-0.02,0-0.03v-0.01v0c0-1.07,0.87-1.95,1.94-1.95h0.01c1.07,0,1.94,0.87,1.95,1.94v0.06
						c0.05,8.86,6.16,17.27,17.22,23.69c23.71,13.79,62.45,13.78,86.34,0c11.25-6.5,17.44-15.03,17.42-24.02v0c0,0,0,0,0,0
						c0-1.07,0.87-1.95,1.94-1.95h0.01c1.07,0,1.94,0.87,1.95,1.94l0.74,193.99c0.02,10.45-6.85,20.19-19.38,27.41
						C1484.84,750.13,1468.48,753.73,1452.14,753.73z M1391.14,535.03l0.68,180.77c0.03,8.88,6.14,17.31,17.22,23.75
						c23.73,13.79,62.46,13.79,86.34,0c11.26-6.5,17.45-15.03,17.43-24.03l-0.69-180.81c-3.25,5.32-8.51,10.17-15.53,14.22
						c-24.97,14.41-65.45,14.41-90.26,0C1399.5,544.96,1394.36,540.22,1391.14,535.03z"/><path fill="#373b42" d="M1451.41,559.74c-16.35,0-32.67-3.6-45.07-10.81c-12.37-7.19-19.17-16.85-19.15-27.21
						c0.02-10.41,6.91-20.12,19.4-27.34l0,0c24.95-14.4,65.42-14.37,90.26,0.05c12.34,7.18,19.14,16.83,19.12,27.18
						c-0.02,10.41-6.9,20.11-19.37,27.31C1484.11,556.14,1467.75,559.74,1451.41,559.74z M1408.54,497.76
						c-11.24,6.49-17.44,15-17.45,23.97c-0.02,8.91,6.1,17.37,17.22,23.83c23.71,13.79,62.45,13.78,86.34,0
						c11.22-6.48,17.41-14.99,17.42-23.94c0.01-8.91-6.09-17.36-17.19-23.81C1471.13,484.02,1432.4,483.98,1408.54,497.76
						L1408.54,497.76z"/></g><g><path fill="#fff" d="M1410.17,387.57l0.49,128.49c0.02,6.12,4.04,12.23,12.09,16.91c16.17,9.39,42.45,9.39,58.72,0
						c8.17-4.72,12.25-10.91,12.24-17.1l-0.49-128.49c0.02,6.19-4.07,12.39-12.24,17.1c-16.27,9.39-42.56,9.39-58.72,0
						C1414.21,399.81,1410.19,393.69,1410.17,387.57z"/><path fill="#dbdee4" d="M1422.26,404.48c7.96,4.62,18.37,6.95,28.83,7.02v128.46c-10.3-0.14-20.51-2.44-28.34-6.99
						c-8.05-4.68-12.07-10.79-12.09-16.91l-0.49-128.49C1410.19,393.69,1414.21,399.81,1422.26,404.48z"/><path fill="#373b42" d="M1452.08,541.93c-10.99,0-21.97-2.42-30.31-7.26c-8.4-4.89-13.04-11.49-13.06-18.59l-0.49-128.46
						c0-0.01,0-0.01,0-0.02v-0.01c0,0,0,0,0,0c0-1.07,0.87-1.95,1.94-1.95h0.01c1.07,0,1.94,0.87,1.95,1.94v0.04
						c0.03,5.65,3.98,11.04,11.12,15.19c15.6,9.07,41.07,9.06,56.76,0c7.28-4.21,11.28-9.68,11.26-15.41l0,0l0,0
						c-0.01-1.08,0.87-1.95,1.94-1.96h0.01c1.07,0,1.94,0.87,1.95,1.94l0.49,128.49c0.02,7.2-4.68,13.87-13.21,18.8
						C1474.06,539.51,1463.06,541.93,1452.08,541.93z M1412.16,398.46l0.45,117.6c0.02,5.67,3.97,11.07,11.12,15.23
						c15.59,9.06,41.07,9.06,56.77,0c7.28-4.2,11.28-9.68,11.26-15.42l-0.45-117.62c-2.22,2.94-5.38,5.62-9.36,7.92
						c-16.78,9.69-44,9.69-60.67,0C1417.42,403.93,1414.35,401.31,1412.16,398.46z"/><path fill="#1fb6ff" d="M1422.43,370.45c-16.27,9.39-16.36,24.62-0.16,34.03c16.17,9.39,42.45,9.39,58.72,0
						c16.24-9.38,16.33-24.6,0.16-34C1464.96,361.08,1438.67,361.08,1422.43,370.45z"/><path fill="#373b42" d="M1451.58,413.44c-10.99,0-21.96-2.42-30.3-7.26c-8.44-4.9-13.07-11.53-13.07-18.66
						c0.02-7.17,4.71-13.82,13.23-18.74c16.77-9.69,43.98-9.67,60.68,0.03c8.41,4.89,13.05,11.51,13.04,18.64
						c-0.01,7.17-4.7,13.82-13.21,18.73C1473.56,411.01,1462.57,413.44,1451.58,413.44z M1451.78,365.36
						c-10.27,0-20.54,2.26-28.38,6.78l0,0c-7.26,4.2-11.27,9.66-11.28,15.37c-0.01,5.68,3.94,11.11,11.13,15.28
						c15.6,9.07,41.07,9.06,56.76,0c7.26-4.19,11.25-9.65,11.26-15.36c0.01-5.68-3.93-11.1-11.1-15.26
						C1472.35,367.63,1462.07,365.36,1451.78,365.36z M1422.42,370.46h0.05H1422.42z"/><g><linearGradient id="b" x1="1458.491" x2="1458.491" y1="415.232" y2="259.199" gradientTransform="translate(-6.808)" gradientUnits="userSpaceOnUse"><stop offset="0" stop-color="#1fb6ff" stop-opacity=".9"/><stop offset="1" stop-color="#fff" stop-opacity="0"/></linearGradient><path fill="url(#b)" d="M1490.78,251.97v135.15
					c-0.2,5.64-4.03,11.19-11.39,15.52c-15.42,8.87-40.2,8.87-55.52,0c-7.36-4.33-11.08-9.87-11.28-15.52V251.97H1490.78z"/></g></g><g><path fill="#fff" d="M2054.07,1466.02c-14.1-8.14-14.18-21.34-0.17-29.48c14.01-8.14,36.8-8.14,50.9,0s14.17,21.34,0.16,29.48
			C2090.95,1474.16,2068.17,1474.16,2054.07,1466.02z"/><path fill="#dbdee4" d="M2079.55,1474.04c-9.57,0-19.14-2.11-26.45-6.33c-7.47-4.31-11.59-10.16-11.6-16.48
			c-0.01-6.27,4.05-12.09,11.42-16.38c14.53-8.44,38.23-8.44,52.85,0c7.46,4.31,11.58,10.16,11.59,16.47
			c0.02,6.27-4.04,12.09-11.42,16.38C2098.67,1471.93,2089.12,1474.04,2079.55,1474.04z M2055.04,1464.33
			c13.54,7.81,35.5,7.81,48.93,0c6.13-3.56,9.5-8.18,9.49-13c-0.01-4.86-3.43-9.51-9.64-13.1c-13.54-7.82-35.51-7.82-48.94,0
			c-6.12,3.56-9.5,8.17-9.49,13C2045.4,1456.09,2048.83,1460.75,2055.04,1464.33z"/></g><g><path fill="#1fb6ff" d="M2079.35,1441.98c5.5,0,10.81,1.25,14.59,3.43c3.03,1.75,4.78,3.9,4.78,5.9c0,1.98-1.7,4.1-4.68,5.83
			c-3.75,2.18-9.04,3.43-14.53,3.43c-5.49,0-10.81-1.25-14.58-3.43c-3.04-1.75-4.78-3.91-4.78-5.91c0-1.98,1.7-4.1,4.68-5.83
			C2068.57,1443.23,2073.86,1441.98,2079.35,1441.98z"/></g><g><path fill="#373b42" d="M1955.25,1371.35c5.9,0,11.61,1.34,15.67,3.69c3.26,1.88,5.13,4.19,5.13,6.34c0,2.12-1.83,4.41-5.03,6.27
			c-4.02,2.34-9.71,3.68-15.61,3.68c-5.9,0-11.6-1.34-15.66-3.68c-3.26-1.88-5.13-4.2-5.14-6.35c0-2.12,1.83-4.4,5.03-6.26
			C1943.66,1372.69,1949.35,1371.35,1955.25,1371.35z"/></g><g><path fill="#373b42" d="M1688.15,1195.59c5.9,0,11.61,1.34,15.67,3.69c3.26,1.88,5.13,4.19,5.13,6.34c0,2.12-1.83,4.41-5.03,6.27
			c-4.02,2.34-9.71,3.68-15.61,3.68c-5.9,0-11.6-1.34-15.66-3.68c-3.26-1.88-5.13-4.2-5.14-6.35c0-2.12,1.83-4.4,5.03-6.26
			C1676.56,1196.93,1682.25,1195.59,1688.15,1195.59z"/></g><g><path fill="#373b42" d="M1493.05,1802.14c5.9,0,11.61,1.34,15.67,3.69c3.26,1.88,5.13,4.19,5.13,6.34c0,2.12-1.83,4.41-5.03,6.27
			c-4.02,2.34-9.71,3.68-15.61,3.68c-5.9,0-11.6-1.34-15.66-3.68c-3.26-1.88-5.13-4.2-5.14-6.35c0-2.12,1.83-4.4,5.03-6.26
			C1481.47,1803.48,1487.15,1802.14,1493.05,1802.14z"/></g><g><path fill="#fff" d="M2130.59,2210.52c-14.1-8.14-14.18-21.34-0.17-29.48s36.8-8.14,50.9,0c14.1,8.14,14.17,21.34,0.16,29.48
			C2167.48,2218.65,2144.69,2218.66,2130.59,2210.52z"/><path fill="#dbdee4" d="M2156.07,2218.53c-9.57,0-19.14-2.11-26.45-6.33c-7.47-4.31-11.59-10.17-11.6-16.48
			c-0.01-6.27,4.04-12.09,11.41-16.38c14.53-8.44,38.24-8.44,52.86,0c7.46,4.31,11.58,10.16,11.59,16.47
			c0.01,6.27-4.04,12.09-11.42,16.38C2175.19,2216.42,2165.64,2218.53,2156.07,2218.53z M2155.83,2176.86
			c-8.86,0-17.7,1.95-24.43,5.86c-6.12,3.56-9.49,8.17-9.48,12.99c0.01,4.87,3.43,9.53,9.65,13.12c13.52,7.81,35.48,7.82,48.93,0
			c6.13-3.56,9.5-8.18,9.49-13c-0.01-4.86-3.43-9.51-9.64-13.1C2173.58,2178.82,2164.7,2176.86,2155.83,2176.86z"/></g><g><path fill="#1fb6ff" d="M2155.87,2186.48c5.5,0,10.81,1.25,14.59,3.43c3.03,1.75,4.78,3.9,4.78,5.9c0,1.98-1.7,4.1-4.68,5.83
			c-3.75,2.18-9.04,3.43-14.53,3.43c-5.49,0-10.81-1.25-14.58-3.43c-3.04-1.75-4.78-3.91-4.78-5.91c0-1.98,1.7-4.1,4.68-5.83
			C2145.09,2187.73,2150.38,2186.48,2155.87,2186.48z"/></g><g><path fill="#373b42" d="M2031.77,2115.84c5.9,0,11.61,1.34,15.67,3.69c3.26,1.88,5.13,4.19,5.13,6.34c0,2.12-1.83,4.41-5.03,6.27
			c-4.02,2.34-9.71,3.68-15.61,3.68c-5.9,0-11.6-1.34-15.66-3.68c-3.26-1.88-5.13-4.2-5.14-6.35c0-2.12,1.83-4.4,5.03-6.26
			C2020.19,2117.18,2025.87,2115.84,2031.77,2115.84z"/></g></svg>