<?xml version="1.0" encoding="UTF-8"?>
<svg version="1.1" xmlns="http://www.w3.org/2000/svg" width="96" height="96">
<path d="M0 0 C2.04661856 2.23484771 3.64528545 4.26029293 5.3125 6.75 C5.76689453 7.38421875 6.22128906 8.0184375 6.68945312 8.671875 C9.0767436 12.11818907 10 13.70951998 10 18 C3.13484138 18.26404456 -3.25846717 17.25841946 -10 16 C-10.495 14.02 -10.495 14.02 -11 12 C-6.71 12 -2.42 12 2 12 C0.68 10.02 -0.64 8.04 -2 6 C-5.36431427 6.40779567 -7.80687365 7.35702457 -10.6875 9.0625 C-14 11 -14 11 -16 11 C-15.75765625 11.68102783 -15.5153125 12.36205566 -15.265625 13.0637207 C-14.17222665 16.14494879 -13.08603656 19.22866984 -12 22.3125 C-11.42765625 23.9202832 -11.42765625 23.9202832 -10.84375 25.56054688 C-10.30234375 27.10258789 -10.30234375 27.10258789 -9.75 28.67578125 C-9.41484375 29.62364502 -9.0796875 30.57150879 -8.734375 31.5480957 C-8 34 -8 34 -8 37 C-7.16082031 37.14695312 -7.16082031 37.14695312 -6.3046875 37.296875 C1.27558388 38.71055905 8.61219879 40.80707918 16 43 C15.69092944 50.10862283 12.40187232 55.35208257 8.9375 61.4375 C8.36966797 62.45521484 7.80183594 63.47292969 7.21679688 64.52148438 C5.82091488 67.01999585 4.41517646 69.51238264 3 72 C1.68 72 0.36 72 -1 72 C-2.4279783 67.7654367 -3.85204104 63.52958336 -5.27246094 59.29248047 C-5.75640691 57.85071123 -6.24142839 56.40930254 -6.72753906 54.96826172 C-7.42534712 52.89904721 -8.11929998 50.82857457 -8.8125 48.7578125 C-9.44091797 46.88826904 -9.44091797 46.88826904 -10.08203125 44.98095703 C-11 42 -11 42 -11 40 C-12.258125 39.773125 -13.51625 39.54625 -14.8125 39.3125 C-23.304956 37.62875691 -31.64342384 35.24786751 -40 33 C-32.44374196 40.62661426 -27.00150174 44.0948704 -16.15234375 44.62109375 C-13 45 -13 45 -11.0546875 46.34375 C-10 48 -10 48 -10.1875 51.0625 C-11 54 -11 54 -13 56 C-16.66170074 56.48247097 -18.39910354 56.41805633 -21.46484375 54.28515625 C-22.68880859 53.18494141 -22.68880859 53.18494141 -23.9375 52.0625 C-30.69020854 46.7741219 -36.67406362 46.8202227 -45 47 C-41.93698313 54.65607568 -38.47218832 62.65846538 -32 68 C-23.38522842 70.88275401 -13.9100684 69.94682042 -5 69 C-5 69.99 -5 70.98 -5 72 C-9.14387734 72.24882404 -13.28372119 72.4293297 -17.43286133 72.54931641 C-18.84085843 72.59935413 -20.24834223 72.66741993 -21.65454102 72.75439453 C-33.26400917 73.454008 -33.26400917 73.454008 -37.33569336 70.04370117 C-39.17527233 67.44861221 -40.59840651 64.85303709 -42 62 C-42.94461954 60.46235786 -43.90103733 58.93187895 -44.87109375 57.41015625 C-45.73083315 55.96346695 -46.58637096 54.51427172 -47.4375 53.0625 C-47.88287109 52.32193359 -48.32824219 51.58136719 -48.78710938 50.81835938 C-49.20669922 50.10615234 -49.62628906 49.39394531 -50.05859375 48.66015625 C-50.43298584 48.02730713 -50.80737793 47.39445801 -51.19311523 46.74243164 C-52 45 -52 45 -52 42 C-47.05 42 -42.1 42 -37 42 C-38.155 41.10796875 -39.31 40.2159375 -40.5 39.296875 C-42.00050645 38.11522617 -43.50047902 36.93289915 -45 35.75 C-45.763125 35.16347656 -46.52625 34.57695313 -47.3125 33.97265625 C-48.3953125 33.11220703 -48.3953125 33.11220703 -49.5 32.234375 C-50.1703125 31.71069336 -50.840625 31.18701172 -51.53125 30.64746094 C-53 29 -53 29 -53 25 C-47.56705972 25.57341831 -42.47034741 26.53795566 -37.21875 28.06640625 C-36.51979614 28.26475571 -35.82084229 28.46310516 -35.10070801 28.66746521 C-32.89886142 29.29365427 -30.69944005 29.92791617 -28.5 30.5625 C-26.99494549 30.99207574 -25.48973833 31.42111706 -23.984375 31.84960938 C-20.32112532 32.89357785 -16.66002542 33.94478593 -13 35 C-13.21205078 34.39003174 -13.42410156 33.78006348 -13.64257812 33.15161133 C-14.60299509 30.37458152 -15.55158881 27.59365172 -16.5 24.8125 C-16.83386719 23.85279297 -17.16773438 22.89308594 -17.51171875 21.90429688 C-17.82753906 20.97294922 -18.14335938 20.04160156 -18.46875 19.08203125 C-18.76201172 18.22843018 -19.05527344 17.3748291 -19.35742188 16.49536133 C-20.03808336 13.85210865 -20.26285219 11.71633251 -20 9 C-17.98828125 7.3046875 -17.98828125 7.3046875 -15.3125 5.875 C-14.00732422 5.15957031 -14.00732422 5.15957031 -12.67578125 4.4296875 C-11.79277344 3.95789063 -10.90976562 3.48609375 -10 3 C-8.75283203 2.16855469 -8.75283203 2.16855469 -7.48046875 1.3203125 C-4.53735563 -0.24625795 -3.26380324 -0.78938497 0 0 Z M-6 42 C-3.97810834 49.78121942 -1.61369593 57.39772708 1 65 C3.66648371 61.66894651 5.6669681 58.12802152 7.6875 54.375 C8.31011719 53.22773437 8.93273437 52.08046875 9.57421875 50.8984375 C11.14713316 48.23925278 11.14713316 48.23925278 11 46 C8.73050898 45.32844651 6.4596039 44.6626037 4.1875 44 C2.92292969 43.62875 1.65835938 43.2575 0.35546875 42.875 C-2.90587415 41.87383491 -2.90587415 41.87383491 -6 42 Z M-21 48 C-20.01 49.32 -19.02 50.64 -18 52 C-16.68 51.67 -15.36 51.34 -14 51 C-14.33 50.34 -14.66 49.68 -15 49 C-18.02934491 48.34227572 -18.02934491 48.34227572 -21 48 Z " fill="#fff" transform="translate(65,12)"/>
</svg>
